####
#
# OBJ File Generated by Meshlab
#
####
# Object ccw.obj
#
# Vertices: 542
# Faces: 500
#
####
mtllib ./ccw.obj.mtl

vn -0.8355681145994787 0.1419143518231102 0.5307412200039665
v -0.0113559017217991 0.0095887921503028 0.0175774566151208
vn -0.8896239438057485 -0.2125459965878994 0.4042195417616065
v -0.0069022518283485 0.0072225317441333 0.0243336447829382
vn -0.7803476929388293 0.2245346227439281 0.5836451673014080
v -0.0099350000000000 0.0092130000000000 0.0193890000000000
vn -0.7389518665123987 -0.6453970267690389 0.1934239303073085
v -0.0086831847712801 0.0086070391599236 0.0221494954279397
vn -0.6440108962535779 0.5292932830034115 0.5523572992856470
v -0.0109990000000000 0.0096190000000000 0.0179960000000000
vn -0.6809780464605423 0.5555086914047571 0.4771572005246885
v -0.0113004334205258 0.0097420590419820 0.0174225413810719
vn -0.7588659084370388 0.4281093660552064 0.4907595171851863
v -0.0109990000000000 0.0096660000000000 0.0179550000000000
vn -0.6052634832395192 0.5102107557681134 0.6110164486781799
v -0.0109890000000000 0.0096620000000000 0.0179700000000000
vn -0.5857418779405760 -0.7338589882576375 0.3440311581530429
v 0.0003848624229394 -0.0055879445219797 0.0192554177714420
vn -0.4781984927633387 -0.6866192945734065 -0.5476131351952659
v 0.0070056727833398 -0.0089692721763472 0.0177134957973627
vn -0.6956262242219752 -0.6858648325458601 -0.2137605848876672
v 0.0059292176290571 -0.0117901885463716 0.0221904790594020
vn -0.7902242609524339 -0.6048228860603021 -0.0986655659278683
v 0.0065365199017358 -0.0151413938020053 0.0297121213225281
vn -0.7554696631355377 -0.6408761669953840 -0.1361738839101755
v 0.0078383811921850 -0.0168532911518443 0.0340667777902197
vn 0.2375743437365733 0.0260024469840411 0.9710212685358538
v -0.0024064114369560 -0.0032255519433757 0.0198750819200763
vn -0.8644549537535795 -0.4995989889757168 -0.0558433804970514
v 0.0029570424580928 -0.0132068352761935 0.0358294869142278
vn -0.8171443842515791 -0.5530740989477803 0.1624318206485686
v -0.0030798334059337 -0.0009896411263827 0.0199799700756275
vn -0.8841678013915304 -0.4254723094200176 0.1929264442715518
v -0.0055005054283477 0.0014939836563168 0.0200254620105529
vn -0.8521197600384816 -0.4944492727557733 0.1714987790721773
v -0.0067826518802733 0.0052280880255504 0.0191777027293856
vn -0.9553077553285457 -0.2220051030993128 0.1951943308782277
v 0.0023182207841901 -0.0092796554730650 0.0369701025597925
vn -0.9031824069284209 -0.3904449487316359 0.1783655847548354
v 0.0013759512938607 -0.0048051544900905 0.0376621852088775
vn -0.8910969056064368 -0.3272062303197116 0.3144557006298297
v -0.0032483937428006 0.0036173177133612 0.0286168721238849
vn -0.8868137485035795 0.3427556248304590 -0.3099676710757299
v -0.0105847583988128 0.0104889595745733 -0.0168024559235115
vn -0.9623682200646206 0.2674656031733077 0.0480578831076900
v -0.0101617007200414 0.0125509057428931 -0.0157327628158592
vn -0.7769253855256947 0.3234529283422390 0.5401528936075238
v 0.0006577461484657 0.0195300640329752 -0.0045239357871046
vn -0.5311952174957909 -0.0977705793491560 0.8415893028807637
v 0.0067315252373894 0.0199201235885324 -0.0006449668628142
vn -0.5417620252774260 -0.0873115123136249 0.8359848131304836
v 0.0055438931928615 0.0265565383012262 -0.0006236005633593
vn -0.8769866352859569 0.0774456790328489 0.4742326521117635
v 0.0047331675676090 0.0383914507073120 -0.0000675635616984
vn -0.8778325187342532 0.4348010733309128 -0.2008932444930966
v -0.0080307787007039 0.0155878932513202 -0.0184710690067550
vn 0.2005369761054845 0.8610590084640233 -0.4672925263230960
v -0.0017104352343133 0.0191124005081492 -0.0063098425305672
vn -0.8685566771933685 0.4382120831207418 0.2314723929754791
v 0.0046038390494692 0.0377179391134870 -0.0053338627240337
vn -0.4501660876977613 0.8896179902158309 0.0770086032287133
v -0.0026380080532388 0.0183113049160873 -0.0081840501736937
vn 0.6645048687094649 -0.7469299734865128 -0.0229976992078330
v -0.0047745096400148 0.0171793459080645 -0.0103977068877981
vn 0.0259200258089817 -0.7679120936407168 0.6400305998172219
v -0.0049724293425633 0.0153910397965074 -0.0125353106317267
vn -0.1359229926262857 0.9671778318547932 -0.2146904321207077
v 0.0044076320982464 0.0369169628893287 -0.0088180301574654
vn -0.3086253858714949 0.8127713443384424 -0.4941185212253757
v 0.0006368548724424 0.0349003206897475 -0.0155156565535550
vn -0.8791322915447561 0.4765457341686861 0.0055296662551915
v -0.0039901313061506 0.0223208233052503 -0.0179104911985932
vn -0.7415321489817760 0.4117179860599253 -0.5297342465625839
v -0.0012600000000000 0.0283530000000000 -0.0165200000000000
vn -0.4014764862111770 0.3597464127874929 -0.8422583626809872
v -0.0005850000000000 0.0300030000000000 -0.0161370000000000
vn 0.1424840795170252 0.1771865003366178 -0.9738086214357766
v 0.0000560000000000 0.0316970000000000 -0.0157190000000000
vn -0.4118448800598667 -0.7806728345578304 0.4700358711331684
v -0.0104693094034008 -0.0196567635253353 -0.0007831951304483
vn -0.4193830602359664 -0.7822229020365730 0.4607007492034256
v -0.0080701631494250 -0.0225877771303358 -0.0035491257280308
vn -0.9032740672368899 0.2195249079553422 -0.3686526471416218
v 0.0012166194118439 -0.0303221320034738 -0.0230057620635239
vn -0.6917138533627946 -0.7133631721372584 0.1124496763190650
v -0.0108675890350520 -0.0200096523718054 -0.0017182730472160
vn 0.2094057483026698 -0.7766913897212308 -0.5940536320154117
v -0.0003266701963510 -0.0136254946404149 -0.0148736816516982
vn -0.8062938039727342 -0.4872161995764822 0.3354261119016043
v 0.0061541337702834 -0.0098892889917325 -0.0174555950312140
vn -0.2639109007644715 -0.7664689725612938 0.5855564452369386
v 0.0055437934871555 -0.0122298158488150 -0.0207943281033130
vn -0.4008406735584608 -0.7240064186999248 0.5613746165463029
v 0.0057086224182863 -0.0159819854000884 -0.0256314730313436
vn -0.7536050019601458 -0.6228173517731173 -0.2101857448804976
v -0.0069866890446328 -0.0243708291567093 -0.0056205105565242
vn -0.7220615355688450 0.5827526657766080 -0.3728625341626837
v 0.0067252188092441 -0.0180221914267529 -0.0271946622874968
vn -0.6865879793598874 0.5340561422597531 -0.4933365823787421
v 0.0024163008609089 -0.0118069423693507 -0.0162844296695703
vn -0.3643895102409977 0.7550927825960374 -0.5450276823223746
v 0.0073150365916953 -0.0207294166465492 -0.0319209635921021
vn 0.8871857176413538 -0.3820384773152616 0.2587433173317376
v -0.0004941440725942 -0.0157600719983133 -0.0121418780320620
vn -0.9701412532007111 0.1663005558055267 -0.1765504856320900
v 0.0027105293451178 -0.0242053346067764 -0.0295797921953245
vn -0.8745538741409399 0.2696499435224180 -0.4030439544062531
v -0.0046522940452709 -0.0180516804024550 -0.0085311419626188
vn -0.7294063510740457 -0.0632133837377386 -0.6811537588013967
v -0.0080137505335334 -0.0193974325940295 -0.0049822406476624
vn -0.9540789189365096 0.0784242127259933 -0.2891073490924245
v 0.0038907304677926 -0.0264591183958713 -0.0272575353120381
vn -0.9243332390388246 -0.1478105414056214 -0.3517955472392628
v -0.0002535471571975 -0.0293309368934280 -0.0188133186791730
vn 0.1524734537224970 -0.8851382648048693 0.4396385994065565
v -0.0027118992785437 -0.0274355373737053 -0.0129942876168912
vn 0.4642855040722929 -0.7025740529838395 0.5392853333646281
v -0.0054099963768785 -0.0251843882344798 -0.0077386535942304
vn 0.7041434271552234 -0.4459883697395238 0.5525182422790930
v -0.0008276963149547 -0.0236893006787127 -0.0123716314986037
vn 0.2212995093535056 0.4672420358811252 -0.8559856348476643
v -0.0104348798795813 0.0106272196687904 -0.0169695425492486
vn 0.0407003312870246 0.9141187092735630 -0.4033986469847932
v -0.0109780647497984 0.0106729747214059 -0.0173522638383045
vn 0.0468983587002248 0.7554633627100155 -0.6535102535952291
v -0.0109071752697487 0.0105218059734230 -0.0176876664393721
vn 0.0349036584005014 0.7146836767525795 -0.6985763929690694
v -0.0108870000000000 0.0106430000000000 -0.0174110000000000
vn -0.0024010261055771 0.2273101337528542 -0.9738194587123939
v -0.0109159092568260 0.0067807827795995 -0.0185912089910828
vn 0.0351252210894886 0.5760614955275549 -0.8166513161772113
v 0.0119905474572348 0.0078326240634026 -0.0184741699704000
vn -0.0006941292352170 0.2235682304485160 -0.9746880344596029
v 0.0119906905879131 -0.0002492025545005 -0.0202200188930486
vn -0.0070951626693306 0.0033734417596150 -0.9999691388024883
v -0.0038010000000000 -0.0002580000000000 -0.0202760000000000
vn 0.0667106334117691 0.4682584432561769 -0.8810696463442048
v 0.0119909358918057 0.0143927919770451 -0.0141370653627820
vn -0.5421053216161377 0.8185665154794486 0.1899228264619541
v 0.0060381742361575 0.0202856613053658 0.0004742132984116
vn -0.0030807002438350 0.8293881777306275 0.5586642640501331
v 0.0119873271494529 0.0134598236226141 0.0155736332483117
vn -0.2795467653269899 0.9600992467666709 -0.0079399214912963
v 0.0120789516950663 0.0253164078879219 -0.0039658169437601
vn -0.0388733937413320 0.7427116691131478 0.6684820385187574
v -0.0109174440431107 0.0126615181444880 0.0151286319201360
vn 0.0000000000000000 0.0000000000000000 0.0000000000000000
v -0.0109870000000000 0.0107270000000000 -0.0173560000000000
vn 0.0000000000000000 0.0000000000000000 0.0000000000000000
v -0.0109850000000000 0.0107190000000000 -0.0173600000000000
vn 0.0594728044412460 0.7273368509121353 -0.6836988305073451
v -0.0107776111249275 0.0106903853648966 -0.0174145384038149
vn 0.2835436775567560 0.1008821355678997 -0.9536381796262409
v -0.0102310224582838 0.0132652061476306 -0.0208635672967953
vn -0.2155012837625319 0.9104285559012155 -0.3530991946979322
v -0.0014255193859947 0.0176000074651597 -0.0092545895008129
vn -0.1444912232144360 0.9614013626180844 0.2341574392798288
v -0.0109499324940074 0.0095435173986118 0.0174993010319262
vn 0.0000000000000000 0.0000000000000000 0.0000000000000000
v -0.0109970000000000 0.0096180000000000 0.0179950000000000
vn 0.1174902932766329 0.0451459690962460 0.9920473136197343
v 0.0119912552933833 0.0002611409975112 0.0202110384134455
vn 0.0207735700200310 0.5546354191468068 0.8318341244602009
v -0.0105738193568384 0.0120060521618772 0.0223489826555001
vn -0.0302624595882068 -0.2349906222032299 0.9715264232208052
v -0.0022004579514936 0.0002350485976072 0.0197626639714981
vn -0.0058292484267082 0.4917060720787423 -0.8707417289550757
v -0.0180253545764073 0.0002339406628384 0.0191430302437634
vn -0.0181634095786892 0.4775090897114900 -0.8784390472852290
v 0.0109753251756521 0.0002293935182822 0.0185409138773639
vn -0.0176334232266747 0.9979639893599807 -0.0612938685842341
v -0.0180360409546795 -0.0200373051668218 0.0072600827407590
vn -0.0235960289744463 0.8073804651247554 -0.5895591674730966
v 0.0109617072116357 -0.0189660295608893 0.0081067902112651
vn -0.0159162905551492 0.5199134282644234 0.8540706638243103
v -0.0180247212558793 -0.0102337082069598 -0.0165440799749923
vn -0.0264746012574614 0.7826074383290973 0.6219523237035348
v 0.0109753515642769 -0.0104213942810228 -0.0157966009068380
vn -0.0161201014380918 0.2339082604925955 0.9721250269399270
v -0.0180249384836111 -0.0002419527225756 -0.0189482539048721
vn -0.0197025234751680 0.2438187496560296 0.9696206618492000
v 0.0109754004324324 -0.0002371117354840 -0.0184685254283160
vn -0.0592111046436884 -0.6215085999813680 -0.7811665028891561
v 0.0120182295797770 0.0000395159453697 0.0052015188261913
vn 0.1314988147940159 -0.9260865714022638 -0.3536548090669330
v 0.0120164394473877 0.0048997277284788 0.0018002865495111
vn 0.3254231635045583 -0.6913586532972832 -0.6450759468199482
v 0.0110686228468011 0.0029376557088556 0.0029676909330801
vn -0.7143226492620529 -0.4637175718386861 0.5241270516957459
v 0.0120579723309177 -0.0001091627489390 -0.0048587075383408
vn -0.2767846176193814 -0.7755377558033989 0.5673900464166786
v 0.0110522925625796 0.0032813394150832 -0.0032296071291497
vn -0.5030485943136125 -0.4909666013881233 0.7112621936251740
v 0.0109750000000000 -0.0000720000000000 -0.0055990000000000
vn -0.2750634629673449 -0.0610909649274067 -0.9594831865877851
v 0.0109750000000000 0.0000700000000000 0.0056000000000000
vn -0.0821139005628809 0.9426342262178049 0.3235707386292981
v 0.0028776350456466 0.0200368506969717 -0.0018519272303960
vn -0.0384481940740239 0.9112577920333258 0.4100377700053915
v 0.0012549147190193 0.0195636867250857 0.0052705199587045
vn -0.0575764397835359 0.9840353261621442 -0.1684025844422090
v -0.0180235631990302 0.0199652704001443 -0.0069475823059469
vn 0.0068020035561444 0.9643410184347850 -0.2645753822860017
v 0.0060384939169772 0.0218527482255879 0.0005506303750353
vn 0.1359526920178007 0.6786174871373395 0.7217999526769977
v -0.0109024338020271 0.0124115353174872 0.0150878581020308
vn 0.2123372337781702 0.7118449678679901 0.6694696713611863
v -0.0109635666746565 0.0098927051779936 0.0173247766450142
vn -0.4330045475605791 0.1889289606829438 0.8813699050949725
v -0.0113534220106538 0.0098673927885941 0.0175596324857994
vn -0.0858809036317627 0.3101073688138254 0.9468146018090120
v -0.0180244538951082 0.0002622544943622 0.0204680389007719
vn 0.0247820531928356 0.1910651461988845 0.9812644698283671
v -0.0045826434386004 0.0002545506636308 0.0201300630151738
vn 0.1331736046811015 0.2720911302293275 0.9530116514853157
v -0.0113539218706830 0.0078900007718925 0.0143595392579183
vn 0.0624417479773321 0.7365918712448424 0.6734489166414603
v -0.0180245712280962 0.0161211494969279 0.0129416466885209
vn 0.2833983791754644 0.5624860271104349 0.7767205597808254
v -0.0098309557115999 0.0074160325837176 0.0188681752425975
vn -0.0131645402625293 0.4410398704840056 -0.8973909557841152
v -0.0180250000000000 0.0100510000000000 -0.0172960000000000
vn 0.0100873215206782 0.2874686089638525 -0.9577369392505053
v -0.0109015392596752 0.0068308537224460 -0.0181637004359847
vn -0.2828860481558511 0.9078216702305705 0.3095727682121653
v 0.0035138519477027 0.0249557507724345 -0.0019013760761559
vn -0.0133309936676529 0.8904635045901413 -0.4548593536477799
v -0.0108747154721695 0.0106742077086219 -0.0158088978274014
vn -0.2347042976382392 0.4474533811130799 -0.8629596539819309
v -0.0113257961205559 0.0111529923490468 -0.0185466282695125
vn -0.0141059380855839 -0.2651293668540168 -0.9641096625085311
v -0.0109100000000000 0.0099670000000000 -0.0173770000000000
vn 0.0192067566991586 0.3092997159861262 -0.9507706275374734
v -0.0180238181465844 -0.0002422222688103 -0.0206085553837956
vn 0.0158868227374602 0.3123222327639997 -0.9498433722380857
v -0.0037764566786100 -0.0002490379385450 -0.0203724989691463
vn 0.1445233523292294 -0.2950019076630654 0.9445035071965978
v -0.0180250502515613 0.0002536592506747 0.0203518521058219
vn 0.0498835869105632 -0.8742146196918893 0.4829704198746561
v 0.0059858959254616 -0.0101581649204124 0.0167173711396784
vn -0.0017408136304494 -0.5459675858642394 0.8378044907694626
v -0.0180247056301057 -0.0115585966736778 0.0166624133575431
vn 0.0188659219839302 -0.8259685531549972 0.5634004137260963
v -0.0015503150418268 -0.0164916415304286 0.0121800828483877
vn -0.3841292617041553 -0.8712764604823277 -0.3054865622445737
v -0.0113324778165707 -0.0200729599689540 -0.0001960622588160
vn 0.0780900370342659 -0.9797660435378415 0.1842836022173206
v -0.0109035669169059 -0.0194173828898516 0.0033081426471238
vn -0.0551692277704449 -0.9924191105910023 0.1098210600976726
v -0.0180247798614445 -0.0194145001114143 0.0063410778853482
vn -0.0797176809207284 -0.7781498460969327 -0.6229991238901871
v -0.0180246772288428 -0.0179954958382269 -0.0100401124730681
vn -0.0019640618005918 0.1357432550129174 -0.9907421012451937
v 0.0029226064928550 -0.0068053698045572 -0.0190528567907270
vn -0.0630852242956308 -0.3475287187605451 -0.9355447846641142
v -0.0180248372378055 -0.0070013273729068 -0.0190381787470051
vn -0.0022046941972093 -0.1472085970383434 -0.9891030119666503
v -0.0037750000000000 -0.0002550000000000 -0.0200740000000000
vn -0.0051508471543879 -0.1411201359480820 -0.9899790785686267
v -0.0180250000000000 -0.0002540000000000 -0.0200000000000000
vn -0.3422451308047977 -0.4320655208545176 -0.8343786047886902
v 0.0021237733767232 -0.0122291000411084 -0.0160477575507123
vn -0.1617465952252287 -0.4068860554519620 -0.8990449248017526
v 0.0060509088824486 -0.0116474064898403 -0.0212669273912323
vn -0.3545216076485827 -0.2979909795402681 -0.8862932955985259
v 0.0029018542612163 -0.0141795176567782 -0.0196938407648754
vn 0.1568751791687505 -0.9557808056466305 0.2487433008509984
v -0.0109606212949600 -0.0199250773487499 -0.0000759434317214
vn -0.1998605486716776 -0.9010169348165659 -0.3849990185161727
v -0.0113190921347203 -0.0181166412524109 -0.0005396456089580
vn -0.0074941462719957 -0.7331337233172366 0.6800432203225464
v 0.0044884324108625 -0.0100795104806381 0.0185050678828490
vn -0.0861619592066583 -0.0924123490495462 0.9919859245618433
v 0.0016656451969771 -0.0073559379730884 0.0187641939532948
vn 0.0215382521115971 -0.1595864689352656 0.9869489665776802
v -0.0044830526284857 0.0002349090525801 0.0182738648638753
vn -0.5836516326619037 0.5256076597020860 -0.6189405139054885
v 0.0120430007401205 0.0000776317269538 0.0054106562541017
vn -0.4886776052163924 0.7013535707622667 -0.5189386928520460
v 0.0110460308682796 -0.0039216062882683 0.0029546091765467
vn -0.6319574894938730 0.7523014538767515 0.1862048709554270
v 0.0109323967472662 -0.0057275295573996 -0.0029604706206926
vn -0.5150971544327464 0.8220202598158105 0.2428118900458438
v 0.0120051254370841 -0.0050976023958634 -0.0018647752759983
vn -0.1504810440362604 0.5833091952200087 0.7981890992475047
v 0.0109961275933968 -0.0000842423810849 -0.0057187167134560
vn 0.5373053361958753 0.5793225510304484 0.6129342196051800
v 0.0119810754538927 -0.0001381636360466 -0.0065311692188175
vn -1.0000000000000000 0.0000000000000003 0.0000000000000002
v 0.0109750000000000 0.0098860000000000 -0.0155170000000000
vn -1.0000000000000000 0.0000000000000003 0.0000000000000004
v 0.0109750000000000 0.0168105141649569 -0.0075832149179343
vn -1.0000000000000000 0.0000000000000002 -0.0000000000000002
v 0.0109750000000000 0.0182415577408332 0.0024413560836294
vn -1.0000000000000000 0.0000000000000001 0.0000000000000001
v 0.0109750000000000 0.0047656316424611 -0.0030280172919550
vn -1.0000000000000000 0.0000000000000001 0.0000000000000000
v 0.0109750000000000 0.0054385774030157 -0.0013544972845343
vn -1.0000000000000000 0.0000000000000000 -0.0000000000000004
v 0.0109750000000000 0.0178128338213417 -0.0046273870395397
vn -1.0000000000000000 0.0000000000000001 0.0000000000000000
v 0.0109750000000000 0.0183157152052930 -0.0020078423452154
vn -1.0000000000000000 0.0000000000000003 0.0000000000000004
v 0.0109750000000000 0.0183927342961703 0.0006576284361755
vn -1.0000000000000000 0.0000000000000003 0.0000000000000001
v 0.0109750000000000 0.0150133494434843 -0.0106614242079749
vn -1.0000000000000000 -0.0000000000000002 -0.0000000000000000
v 0.0109750000000000 0.0157624763600456 0.0095171527961029
vn -1.0000000000000000 -0.0000000000000000 -0.0000000000000002
v 0.0109750000000000 0.0098982314607923 0.0049635201235738
vn -1.0000000000000000 -0.0000000000000001 0.0000000000000001
v 0.0109750000000000 0.0142189833500483 0.0116986168063031
vn -1.0000000000000000 -0.0000000000000003 -0.0000000000000003
v 0.0109750000000000 0.0035244399863527 -0.0043581856361279
vn -1.0000000000000000 -0.0000000000000004 -0.0000000000000004
v 0.0109750000000000 0.0130158384131863 -0.0130422491220764
vn -1.0000000000000000 0.0000000000000001 -0.0000000000000001
v 0.0109750000000000 0.0109782039775719 -0.0147712822853248
vn -1.0000000000000000 0.0000000000000005 -0.0000000000000003
v 0.0109750000000000 0.0113897572893147 0.0145296977896752
vn -1.0000000000000000 0.0000000000000004 -0.0000000000000000
v 0.0109750000000000 -0.0000720000000000 -0.0055990000000000
vn -1.0000000000000000 0.0000000000000002 -0.0000000000000000
v 0.0109750000000000 0.0024304474806241 -0.0182808241107418
vn -1.0000000000000000 0.0000000000000003 -0.0000000000000002
v 0.0109750000000000 0.0089618953423984 0.0061251676650612
vn -1.0000000000000000 0.0000000000000001 -0.0000000000000000
v 0.0109750000000000 -0.0024589479025844 -0.0182971983434788
vn -1.0000000000000000 -0.0000000000000002 0.0000000000000003
v 0.0109750000000000 -0.0018713211319926 -0.0053502974745423
vn -1.0000000000000000 0.0000000000000010 -0.0000000000000007
v 0.0109750000000000 -0.0071912532200971 -0.0057505049757101
vn -1.0000000000000000 0.0000000000000012 -0.0000000000000025
v 0.0109750000000000 -0.0036299753872556 -0.0042709798693690
vn -1.0000000000000000 0.0000000000000005 0.0000000000000006
v 0.0109750000000000 0.0023378593958297 0.0051211433854478
vn -1.0000000000000000 0.0000000000000007 -0.0000000000000001
v 0.0109750000000000 0.0037671750786781 0.0180538381112490
vn -1.0000000000000000 0.0000000000000003 -0.0000000000000000
v 0.0109750000000000 0.0008406965564371 0.0055421654509598
vn -1.0000000000000000 0.0000000000000001 0.0000000000000002
v 0.0109750000000000 -0.0077200951929566 -0.0060967726473831
vn -1.0000000000000000 -0.0000000000000004 0.0000000000000001
v 0.0109750000000000 0.0006477404150116 0.0183938457374809
vn -1.0000000000000000 -0.0000000000000003 0.0000000000000000
v 0.0109750000000000 -0.0004448347995738 0.0055980215858707
vn -1.0000000000000000 0.0000000000000012 -0.0000000000000014
v 0.0109750000000000 -0.0096875593679844 -0.0053964922759176
vn -1.0000000000000000 -0.0000000000000022 0.0000000000000020
v 0.0109750000000000 -0.0055700000000000 0.0005920000000000
vn -1.0000000000000000 -0.0000000000000047 0.0000000000000040
v 0.0109750000000000 -0.0087600000000000 -0.0031750000000000
vn -1.0000000000000000 0.0000000000000000 0.0000000000000000
v 0.0109750000000000 -0.0024468337812278 0.0050551791766480
vn -1.0000000000000000 -0.0000000000000002 -0.0000000000000001
v 0.0109750000000000 -0.0169610000000000 -0.0071330000000000
vn -1.0000000000000000 -0.0000000000000001 0.0000000000000009
v 0.0109750000000000 -0.0098365085452964 -0.0049583716684361
vn -1.0000000000000000 0.0000000000000002 0.0000000000000009
v 0.0109750000000000 -0.0181872094810659 -0.0028818454532926
vn -1.0000000000000000 -0.0000000000000004 0.0000000000000018
v 0.0109750000000000 -0.0172860000000000 -0.0063030000000000
vn -1.0000000000000000 -0.0000000000000008 0.0000000000000035
v 0.0109750000000000 -0.0098620000000000 -0.0047190000000000
vn -1.0000000000000000 0.0000000000000001 0.0000000000000006
v 0.0109750000000000 -0.0098479184939033 -0.0044085912181098
vn -1.0000000000000000 0.0000000000000001 0.0000000000000002
v 0.0109750000000000 -0.0162359145047943 0.0087893383371055
vn -1.0000000000000000 -0.0000000000000001 0.0000000000000001
v 0.0109750000000000 -0.0133433847649774 0.0127312340495720
vn -1.0000000000000000 -0.0000000000000001 -0.0000000000000002
v 0.0109750000000000 -0.0178319794958811 0.0046432578500704
vn -1.0000000000000000 -0.0000000000000001 0.0000000000000000
v 0.0109750000000000 -0.0043132385510504 0.0036797425654698
vn -1.0000000000000000 0.0000000000000001 0.0000000000000001
v 0.0109750000000000 -0.0053812965568689 0.0016119717361131
vn -1.0000000000000000 0.0000000000000010 -0.0000000000000002
v 0.0109750000000000 -0.0080572090434404 -0.0031202494136854
vn -1.0000000000000000 -0.0000000000000001 -0.0000000000000001
v 0.0109750000000000 -0.0102725838082013 0.0152976511190328
vn -1.0000000000000000 0.0000000000000008 -0.0000000000000003
v 0.0109750000000000 -0.0145094752734476 -0.0113576519487285
vn -1.0000000000000000 0.0000000000000000 0.0000000000000000
v 0.0109750000000000 -0.0075471014749301 0.0167967558516609
vn -1.0000000000000000 0.0000000000000000 0.0000000000000000
v 0.0109750000000000 -0.0014700000000000 0.0054040000000000
vn -1.0000000000000000 0.0000000000000000 0.0000000000000000
v 0.0109750000000000 -0.0058850000000000 0.0174340000000000
vn -1.0000000000000000 0.0000000000000009 -0.0000000000000004
v 0.0109750000000000 -0.0092243704374393 -0.0059325235891254
vn -1.0000000000000000 0.0000000000000003 0.0000000000000001
v 0.0109750000000000 -0.0117352525185736 -0.0142262541696965
vn -1.0000000000000000 0.0000000000000000 0.0000000000000000
v 0.0109750000000000 -0.0041760000000000 0.0179200000000000
vn -1.0000000000000000 0.0000000000000000 0.0000000000000000
v 0.0109750000000000 -0.0050360000000000 0.0176970000000000
vn -1.0000000000000000 0.0000000000000000 0.0000000000000000
v 0.0109750000000000 -0.0019911528631386 0.0183188384467334
vn -1.0000000000000000 0.0000000000000000 0.0000000000000000
v 0.0109750000000000 -0.0079793681464195 -0.0165948168380321
vn -1.0000000000000000 -0.0000000000000008 0.0000000000000002
v 0.0109750000000000 -0.0095310000000000 -0.0157390000000000
vn -1.0000000000000000 0.0000000000000005 0.0000000000000002
v 0.0109750000000000 -0.0070141079784471 -0.0036773985970275
vn -1.0000000000000000 -0.0000000000000003 0.0000000000000017
v 0.0109750000000000 -0.0041890000000000 -0.0037170000000000
vn -1.0000000000000000 0.0000000000000003 0.0000000000000002
v 0.0109750000000000 -0.0067724397613912 -0.0048379075187898
vn -1.0000000000000000 0.0000000000000007 0.0000000000000001
v 0.0109750000000000 -0.0059101073504973 -0.0174296112078295
vn -1.0000000000000000 -0.0000000000000008 0.0000000000000006
v 0.0109750000000000 0.0071170283157884 0.0057115055800021
vn -1.0000000000000000 0.0000000000000005 0.0000000000000005
v 0.0109750000000000 0.0038314389540612 0.0041041965704518
vn -1.0000000000000000 -0.0000000000000012 -0.0000000000000000
v 0.0109750000000000 0.0075764259478178 0.0167957047364617
vn -1.0000000000000000 -0.0000000000000010 -0.0000000000000002
v 0.0109750000000000 0.0079373796335620 0.0061747514561540
vn -1.0000000000000000 -0.0000000000000007 -0.0000000000000002
v 0.0109750000000000 0.0049506424387670 0.0026784341638360
vn -1.0000000000000000 -0.0000000000000002 0.0000000000000002
v 0.0109750000000000 0.0071597148559668 -0.0170171583219883
vn -1.0000000000000000 -0.0000000000000000 0.0000000000000000
v 0.0109750000000000 0.0017328087754612 -0.0053964870337855
vn -1.0000000000000000 0.0000000000000007 -0.0000000000000000
v 0.0109750000000000 -0.0056000000000000 0.0000690000000000
vn -1.0000000000000000 0.0000000000000015 -0.0000000000000015
v 0.0109750000000000 0.0081303309198490 0.0031156123699725
vn -1.0000000000000000 0.0000000000000006 -0.0000000000000005
v 0.0109750000000000 0.0056023158688824 0.0001830291598938
vn -1.0000000000000000 0.0000000000000000 0.0000000000000000
v 0.0109750000000000 0.0086002464984085 0.0031320351769913
vn -1.0000000000000000 0.0000000000000000 0.0000000000000000
v 0.0109750000000000 0.0055680000000000 -0.0005840000000000
vn -1.0000000000000000 0.0000000000000001 -0.0000000000000003
v 0.0109750000000000 0.0174904662231843 0.0059076148936203
vn -1.0000000000000000 -0.0000000000000013 0.0000000000000037
v 0.0109750000000000 -0.0067640000000000 -0.0046000000000000
vn -1.0000000000000000 0.0000000000000010 -0.0000000000000000
v 0.0109750000000000 -0.0053350497575195 -0.0019900103970989
vn -1.0000000000000000 -0.0000000000000008 0.0000000000000003
v 0.0109750000000000 -0.0084127523975532 -0.0062289028408853
vn -1.0000000000000000 0.0000000000000004 -0.0000000000000010
v 0.0109750000000000 -0.0162060459746692 -0.0087428568116033
vn -1.0000000000000000 0.0000000000000000 0.0000000000000000
v 0.0109750000000000 -0.0177009265089309 -0.0050425393847997
vn -1.0000000000000000 -0.0000000000000002 0.0000000000000001
v 0.0109750000000000 -0.0095528040698114 -0.0036761888932531
vn -1.0000000000000000 -0.0000000000000005 -0.0000000000000009
v 0.0109750000000000 -0.0184305567105160 0.0006795919778832
vn -1.0000000000000000 -0.0000000000000003 -0.0000000000000007
v 0.0109750000000000 -0.0089773946392896 -0.0032560586288101
vn -1.0000000000000000 0.0000000000000019 -0.0000000000000047
v 0.0109750000000000 -0.0068596842078601 -0.0052095682778670
vn -1.0000000000000000 -0.0000000000000029 0.0000000000000028
v 0.0109750000000000 -0.0085321145576468 -0.0031221894650426
vn -1.0000000000000000 0.0000000000000008 -0.0000000000000009
v 0.0109750000000000 0.0076706049202133 0.0032430002604576
vn -1.0000000000000000 0.0000000000000004 -0.0000000000000004
v 0.0109750000000000 0.0054719857387568 0.0012136850310592
vn -1.0000000000000000 0.0000000000000001 -0.0000000000000001
v 0.0109750000000000 0.0096646989855723 0.0038845116752079
vn -1.0000000000000000 0.0000000000000001 0.0000000000000003
v 0.0109750000000000 0.0091879925489147 0.0033622946894771
vn -1.0000000000000000 -0.0000000000000005 0.0000000000000007
v 0.0109750000000000 0.0069425596647808 0.0038284247700528
vn -1.0000000000000000 0.0000000000000010 0.0000000000000007
v 0.0109750000000000 0.0067619261927455 0.0048355299760585
vn -0.0736778903647476 -0.9512872955838024 0.2993727605047854
v 0.0109745516353753 0.0186023281884395 -0.0021702996226315
vn -0.0173122841238929 -0.5290901541272611 -0.8483889989998720
v -0.0180276657319070 0.0123355852564953 0.0158416023171373
vn -0.0243020433728496 -0.7882879381339041 -0.6148264285800524
v 0.0109714122494066 0.0127268324794068 0.0148406260290363
vn -0.0232289308662625 -0.2596481635518094 -0.9654238695697259
v 0.0109750000000000 0.0002320000000000 0.0183990000000000
vn -0.0169627379237289 -0.2454441202333432 -0.9692623222662744
v -0.0180250000000000 0.0002380000000000 0.0189050000000000
vn -0.0113216373870751 -0.9951333422152991 -0.0978848902450416
v -0.0180250486715497 0.0191768008977416 -0.0006526451635463
vn -0.0453633542382051 -0.4810763275585511 0.8755042736360782
v 0.0109574307723404 -0.0001525025543589 -0.0212745914774764
vn -0.0292328321777322 -0.6530919134698486 0.7567142089872241
v -0.0180256033295256 0.0115486238079955 -0.0163467260338036
vn 0.0803147196938343 -0.2113078305394047 0.9741142369112726
v -0.0180250000000000 -0.0002400000000000 -0.0189040000000000
vn 1.0000000000000000 -0.0000000000000001 0.0000000000000001
v 0.0119910000000000 0.0061607648176419 0.0190579190150244
vn 1.0000000000000000 -0.0000000000000003 0.0000000000000000
v 0.0119910000000000 0.0093724739399986 0.0034572035576817
vn 1.0000000000000000 0.0000000000000014 0.0000000000000006
v 0.0119910000000000 0.0049171470498739 0.0029597613866861
vn 1.0000000000000000 -0.0000000000000003 -0.0000000000000021
v 0.0119910000000000 0.0199221087756509 0.0020594849794826
vn 1.0000000000000000 0.0000000000000000 0.0000000000000000
v 0.0119910000000000 0.0199054694957672 -0.0020975204491517
vn 1.0000000000000000 -0.0000000000000005 -0.0000000000000004
v 0.0119910000000000 0.0195233673429243 -0.0043708311579287
vn 1.0000000000000000 0.0000000000000000 0.0000000000000000
v 0.0119910000000000 0.0068470000000000 0.0052890000000000
vn 1.0000000000000000 -0.0000000000000000 0.0000000000000003
v 0.0119910000000000 0.0034580000000000 0.0044600000000000
vn 1.0000000000000000 0.0000000000000019 -0.0000000000000008
v 0.0119910000000000 0.0056410011523068 0.0004541522111556
vn 1.0000000000000000 -0.0000000000000002 0.0000000000000009
v 0.0119910000000000 0.0028177610417535 0.0048964912327404
vn 1.0000000000000000 0.0000000000000000 0.0000000000000000
v 0.0119910000000000 0.0069517964845600 0.0054960255766975
vn 1.0000000000000000 -0.0000000000000003 -0.0000000000000024
v 0.0119910000000000 0.0099011220623757 0.0044812286409701
vn 1.0000000000000000 0.0000000000000012 -0.0000000000000004
v 0.0119910000000000 0.0056120000000000 -0.0005930000000000
vn 1.0000000000000000 -0.0000000000000004 -0.0000000000000005
v 0.0119910000000000 0.0089075578192503 0.0031758079335219
vn 1.0000000000000000 0.0000000000000000 -0.0000000000000001
v 0.0119910000000000 0.0190836571910046 0.0061314596573725
vn 1.0000000000000000 -0.0000000000000004 0.0000000000000008
v 0.0119910000000000 0.0098207378956320 0.0052617725506062
vn 1.0000000000000000 0.0000000000000001 0.0000000000000005
v 0.0119910000000000 0.0187525726369006 -0.0070310290263036
vn 1.0000000000000000 -0.0000000000000000 -0.0000000000000010
v 0.0119910000000000 0.0018663563622573 0.0053332602803842
vn 1.0000000000000000 -0.0000000000000001 -0.0000000000000013
v 0.0119910000000000 0.0071936826922525 0.0058039253350503
vn 1.0000000000000000 -0.0000000000000004 0.0000000000000010
v 0.0119910000000000 0.0173905239500378 0.0099355779462986
vn 1.0000000000000000 0.0000000000000004 -0.0000000000000001
v 0.0119910000000000 0.0158275639767299 0.0122377323760857
vn 1.0000000000000000 0.0000000000000008 -0.0000000000000002
v 0.0119910000000000 0.0093429401330762 0.0058833577415022
vn 1.0000000000000000 0.0000000000000001 0.0000000000000003
v 0.0119910000000000 0.0052818951600511 -0.0021190644442905
vn 1.0000000000000000 -0.0000000000000003 -0.0000000000000001
v 0.0119910000000000 0.0166734918689720 -0.0111589461550763
vn 1.0000000000000000 0.0000000000000016 -0.0000000000000011
v 0.0119910000000000 0.0149510000000000 0.0132870000000000
vn 1.0000000000000000 0.0000000000000001 -0.0000000000000000
v 0.0119910000000000 -0.0001915002174569 0.0057113081350438
vn 1.0000000000000000 -0.0000000000000001 -0.0000000000000001
v 0.0119910000000000 0.0041334295312923 -0.0038649105579326
vn 1.0000000000000000 0.0000000000000002 0.0000000000000001
v 0.0119910000000000 0.0016391460131085 0.0199977345414393
vn 1.0000000000000000 0.0000000000000003 0.0000000000000002
v 0.0119910000000000 0.0125800000000000 -0.0155490000000000
vn 1.0000000000000000 -0.0000000000000002 -0.0000000000000001
v 0.0119910000000000 -0.0078480000000000 0.0183990000000000
vn 1.0000000000000000 -0.0000000000000002 -0.0000000000000000
v 0.0119910000000000 -0.0019730000000000 0.0052890000000000
vn 1.0000000000000000 -0.0000000000000003 -0.0000000000000000
v 0.0119910000000000 0.0024720656076904 -0.0051259311652887
vn 1.0000000000000000 -0.0000000000000005 0.0000000000000001
v 0.0119910000000000 0.0025215169954225 -0.0198850593598793
vn 1.0000000000000000 -0.0000000000000001 0.0000000000000001
v 0.0119910000000000 -0.0031508884609684 0.0047195144150243
vn 1.0000000000000000 0.0000000000000003 0.0000000000000002
v 0.0119910000000000 -0.0016331597745548 -0.0199615181949116
vn 1.0000000000000000 0.0000000000000000 0.0000000000000003
v 0.0119910000000000 -0.0049567037891763 0.0028444467539653
vn 1.0000000000000000 0.0000000000000001 0.0000000000000003
v 0.0119910000000000 -0.0152931765614557 0.0130253111309055
vn 1.0000000000000000 -0.0000000000000004 0.0000000000000002
v 0.0119910000000000 -0.0087203118425826 -0.0180068639192946
vn 1.0000000000000000 -0.0000000000000002 0.0000000000000005
v 0.0119910000000000 -0.0182349268840511 0.0083262398723247
vn 1.0000000000000000 0.0000000000000009 -0.0000000000000004
v 0.0119910000000000 -0.0087475299098220 -0.0062371402518787
vn 1.0000000000000000 -0.0000000000000002 -0.0000000000000016
v 0.0119910000000000 -0.0098334044166500 -0.0040786921649783
vn 1.0000000000000000 0.0000000000000000 -0.0000000000000000
v 0.0119910000000000 -0.0055340000000000 0.0011140000000000
vn 1.0000000000000000 -0.0000000000000000 -0.0000000000000006
v 0.0119910000000000 -0.0193201787838925 -0.0052325397906263
vn 1.0000000000000000 -0.0000000000000004 0.0000000000000013
v 0.0119910000000000 -0.0098971144791704 -0.0048789434545985
vn 1.0000000000000000 -0.0000000000000004 0.0000000000000020
v 0.0119910000000000 -0.0185811086451013 -0.0074175263553013
vn 1.0000000000000000 0.0000000000000005 0.0000000000000007
v 0.0119910000000000 -0.0021118534144827 -0.0052504901824072
vn 1.0000000000000000 0.0000000000000001 0.0000000000000003
v 0.0119910000000000 -0.0032487746292377 -0.0046228782500953
vn 1.0000000000000000 -0.0000000000000003 0.0000000000000002
v 0.0119910000000000 -0.0055164101860301 -0.0012252558432811
vn 1.0000000000000000 0.0000000000000009 -0.0000000000000007
v 0.0119910000000000 -0.0080657278745319 -0.0030620410006063
vn 1.0000000000000000 -0.0000000000000013 0.0000000000000001
v 0.0119910000000000 -0.0070359832168950 -0.0187282204305584
vn 1.0000000000000000 -0.0000000000000006 0.0000000000000004
v 0.0119910000000000 -0.0073102969256972 -0.0059179480173798
vn 1.0000000000000000 0.0000000000000000 0.0000000000000000
v 0.0119910000000000 -0.0122817612770739 -0.0158408938267103
vn 1.0000000000000000 -0.0000000000000001 0.0000000000000001
v 0.0119910000000000 -0.0193037800064003 0.0052614517974060
vn 1.0000000000000000 -0.0000000000000005 0.0000000000000001
v 0.0119910000000000 -0.0078730086182595 -0.0061970591113337
vn 1.0000000000000000 0.0000000000000007 -0.0000000000000000
v 0.0119910000000000 -0.0099540000000000 -0.0173500000000000
vn 1.0000000000000000 0.0000000000000002 0.0000000000000001
v 0.0119910000000000 -0.0000713691394379 -0.0056909876787176
vn 1.0000000000000000 0.0000000000000006 0.0000000000000001
v 0.0119910000000000 -0.0048319504452732 -0.0194239641618084
vn 1.0000000000000000 -0.0000000000000001 -0.0000000000000002
v 0.0119910000000000 -0.0107364293331151 0.0169508273032506
vn 1.0000000000000000 0.0000000000000000 0.0000000000000001
v 0.0119910000000000 -0.0056825280159772 0.0192069571330482
vn 1.0000000000000000 0.0000000000000000 0.0000000000000000
v 0.0119910000000000 0.0061288888245172 -0.0190541318456261
vn 1.0000000000000000 -0.0000000000000001 -0.0000000000000000
v 0.0119910000000000 -0.0025175501260754 0.0198576599172463
vn 1.0000000000000000 0.0000000000000000 0.0000000000000000
v 0.0119910000000000 0.0099500885581501 -0.0174225200987553
vn 1.0000000000000000 -0.0000000000000000 -0.0000000000000002
v 0.0119910000000000 0.0139735958529922 -0.0143307611130478
vn 1.0000000000000000 -0.0000000000000001 -0.0000000000000001
v 0.0119910000000000 0.0119083931291247 0.0161038356370280
vn 1.0000000000000000 -0.0000000000000014 0.0000000000000009
v 0.0119910000000000 0.0139883580605036 0.0143039748063981
vn 1.0000000000000000 0.0000000000000001 0.0000000000000005
v 0.0119910000000000 0.0083319173731510 0.0062853616818190
vn 1.0000000000000000 -0.0000000000000002 0.0000000000000001
v 0.0119910000000000 0.0090198329712754 0.0060906351999113
vn 1.0000000000000000 0.0000000000000014 -0.0000000000000001
v 0.0119910000000000 0.0091389471413997 0.0178082888272899
vn 1.0000000000000000 0.0000000000000010 -0.0000000000000017
v 0.0119910000000000 0.0075757433060611 0.0060802772282675
vn 1.0000000000000000 0.0000000000000010 -0.0000000000000005
v 0.0119910000000000 -0.0087733829052526 -0.0031275100331334
vn 1.0000000000000000 0.0000000000000011 -0.0000000000000007
v 0.0119910000000000 -0.0056613511277256 0.0000778140614166
vn 1.0000000000000000 -0.0000000000000002 -0.0000000000000002
v 0.0119910000000000 -0.0092771601913801 -0.0033758546617117
vn 1.0000000000000000 -0.0000000000000002 0.0000000000000000
v 0.0119910000000000 -0.0198647610466313 0.0025591074282260
vn 1.0000000000000000 -0.0000000000000003 -0.0000000000000009
v 0.0119910000000000 -0.0199813864141045 -0.0015958038549023
vn 1.0000000000000000 -0.0000000000000010 0.0000000000000021
v 0.0119910000000000 -0.0180160000000000 -0.0086890000000000
vn 1.0000000000000000 -0.0000000000000014 0.0000000000000039
v 0.0119910000000000 -0.0098160000000000 -0.0051940000000000
vn 1.0000000000000000 -0.0000000000000002 -0.0000000000000001
v 0.0119910000000000 -0.0163841134990423 -0.0114806614387010
vn 1.0000000000000000 0.0000000000000004 -0.0000000000000005
v 0.0119910000000000 -0.0149660415705836 -0.0132908007611109
vn 1.0000000000000000 0.0000000000000003 0.0000000000000007
v 0.0119910000000000 -0.0069117051734836 -0.0054303965912734
vn 1.0000000000000000 -0.0000000000000002 -0.0000000000000001
v 0.0119910000000000 -0.0175950000000000 -0.0095110000000000
vn 1.0000000000000000 -0.0000000000000008 0.0000000000000015
v 0.0119910000000000 -0.0097158127386722 -0.0054206108680153
vn 1.0000000000000000 -0.0000000000000002 -0.0000000000000001
v 0.0119910000000000 -0.0171370000000000 -0.0103140000000000
vn 1.0000000000000000 -0.0000000000000002 -0.0000000000000008
v 0.0119910000000000 -0.0066738387697074 -0.0045177510578322
vn 1.0000000000000000 -0.0000000000000004 -0.0000000000000004
v 0.0119910000000000 -0.0072148170298218 -0.0034736275441106
vn 1.0000000000000000 -0.0000000000000004 -0.0000000000000013
v 0.0119910000000000 -0.0047563968038065 -0.0031669728560119
vn 1.0000000000000000 0.0000000000000002 -0.0000000000000004
v 0.0119910000000000 -0.0094889895289632 -0.0057440805915979
vn 1.0000000000000000 0.0000000000000004 0.0000000000000012
v 0.0119910000000000 0.0200000000000000 -0.0002510000000000
vn 1.0000000000000000 -0.0000000000000000 -0.0000000000000009
v 0.0119910000000000 0.0097540851152397 0.0039587002382806
vn 1.0000000000000000 0.0000000000000016 -0.0000000000000008
v 0.0119910000000000 0.0067457133736996 0.0049840688510818
vn 1.0000000000000000 0.0000000000000025 0.0000000000000006
v 0.0119910000000000 0.0067833049997468 0.0040527770336546
vn 1.0000000000000000 0.0000000000000009 0.0000000000000014
v 0.0119910000000000 0.0074681139878316 0.0032954568632252
vn 1.0000000000000000 0.0000000000000017 -0.0000000000000006
v 0.0119910000000000 0.0082156834647451 0.0030464912670220
vn 0.0879056253735275 -0.4615765866726774 -0.8827341930973839
v 0.0060863274051874 -0.0099064229432323 -0.0181756666035262
vn 0.0000000000000000 0.0000000000000000 0.0000000000000000
v -0.0109320190581520 -0.0191651122570977 -0.0005652253342915
vn 0.0523892077037048 -0.9830842212868398 0.1755015235632610
v 0.0119913038994465 -0.0201202186547055 -0.0018337529389490
vn -0.2273995654678331 -0.8931129422524632 0.3881220297872686
v -0.0109060000000000 -0.0200870000000000 0.0035720000000000
vn 0.0002352398725883 -0.9301150957825342 0.3672680945299355
v -0.0093304862728836 -0.0195650807586000 0.0051197432286717
vn 0.0240193564368302 -0.9331098921313703 0.3587882379941447
v 0.0119911163947044 -0.0190218123115073 0.0064819266038670
vn -0.0270974650905063 -0.7693189822165799 0.6382899270605125
v -0.0016583060652417 -0.0164359671873783 0.0119938084708904
vn -0.0544285679661516 -0.3351575312333439 0.9405886243447366
v -0.0021794948459747 0.0002569945274690 0.0200525117807670
vn -0.0475875786149997 -0.5132978654555824 0.8568901467984703
v 0.0119896314748809 -0.0125059997850821 0.0163246244565854
vn -0.0103566707491119 -0.2909323869947656 0.9566875590120959
v 0.0119915666054271 0.0002488331588202 0.0202034394371322
vn -0.1189879610224883 -0.4268339348659009 0.8964678784979430
v 0.0059725494035994 -0.0101206948638796 0.0166616903634101
vn 0.0298042678102846 -0.9371035139203395 0.3477768103517611
v -0.0109102946611170 -0.0203236375997052 -0.0004192228323329
vn 0.0000000000000000 0.0000000000000000 0.0000000000000000
v -0.0109870000000000 -0.0203950000000000 -0.0006110000000000
vn 0.0000000000000000 0.0000000000000000 0.0000000000000000
v -0.0109850000000000 -0.0203950000000000 -0.0006020000000000
vn 0.0477541278399375 -0.8613596539752779 0.5057460724294716
v -0.0092175021838254 -0.0212555532848303 -0.0017647922593039
vn 0.0946244170907347 -0.7472345339768413 -0.6577893058743441
v 0.0119900542886934 -0.0155831339381765 -0.0131818817855294
vn 0.0516336743044066 -0.9789357272243004 -0.1975317838770678
v -0.0078906333330658 -0.0218725219111741 -0.0033520534095726
vn -0.0377858381211134 -0.7617789712861717 -0.6467341256990132
v -0.0011211558147058 -0.0167281819525409 -0.0110671154439259
vn 0.1579062697224899 -0.3264612212367771 -0.9319274011482441
v 0.0119868878571819 -0.0002768191708383 -0.0205491956086720
vn -0.7862373059001495 0.3418930238677269 -0.5147232839511504
v 0.0011665724236139 -0.0330718323108531 -0.0247799721529249
vn -0.8657858291111810 0.2577205938762848 -0.4289463761384632
v 0.0019190280533455 -0.0292125184771441 -0.0233658845990367
vn -0.6871005375977682 -0.3665769351653242 -0.6273071032896532
v 0.0049630059191671 -0.0243747892061498 -0.0293766390789758
vn -0.9096871613688010 -0.1827889968440944 -0.3729040775769321
v 0.0011038677919633 -0.0229011777330261 -0.0179285693138831
vn -0.0015767747961202 -0.7118394363805197 -0.7023404662944506
v 0.0041098693074013 -0.0240325757483399 -0.0297215655672647
vn -0.3656124398081914 -0.1478022142602417 -0.9189570443264861
v 0.0046388926689433 -0.0225468599519365 -0.0295416872235346
vn -0.8964700468472840 -0.1948861177138136 -0.3979457955903868
v 0.0074484758227430 -0.0215933244233208 -0.0363379343726467
vn 0.8788262874586557 -0.0627140494436049 0.4730024360127772
v -0.0042072574751877 -0.0265402877197362 -0.0098619868720633
vn 0.7403881724368904 0.0330800044795921 0.6713650775987619
v -0.0079027757309958 -0.0236359126286592 -0.0040746545337119
vn 0.9123983034160182 -0.0822668162802686 0.4009507536626913
v -0.0013283277104093 -0.0285453027191665 -0.0161050199504697
vn 0.8060223199530796 0.1379444612251731 0.5755860885695139
v -0.0109514644949839 -0.0203444215550596 -0.0005942573049183
vn 0.7588296536003339 0.1562941033786772 0.6322576295038697
v 0.0051864915668848 -0.0238922028126270 -0.0296804337106837
vn 0.8300878752709997 0.1513622955427112 0.5366969115023098
v 0.0064711647001793 -0.0215242783802211 -0.0314296737407532
vn 0.8371655173963243 -0.3589315203670275 0.4127009330853988
v 0.0012080475471520 -0.0304710389220741 -0.0229249059800479
vn 0.7042285637194620 0.1488507272996000 0.6941942026724249
v -0.0081479759671682 -0.0198865582460576 -0.0046298552471824
vn 0.9087587533766424 -0.1110726545158935 0.4022690562050774
v 0.0019389877365256 -0.0297601355695790 -0.0237893389679031
vn 0.8191405217594999 -0.1417545848949285 0.5558007226271304
v -0.0030602428818582 -0.0183900630287501 -0.0086645835763477
vn 0.8126105030004001 -0.1613953782184310 0.5600140197380475
v 0.0027738937448562 -0.0283119821973591 -0.0255140828066252
vn 0.7675554995392290 -0.3930707035337108 0.5063141091759131
v -0.0004345079227710 -0.0165950243286562 -0.0115539361519164
vn 0.7618046195978091 -0.4030161008772488 0.5071801888807732
v 0.0016350715830870 -0.0151188084931828 -0.0133199523106421
vn 0.0136498801109256 0.6819178609704454 0.7313013822374805
v 0.0057890761047633 -0.0257714286679479 -0.0279393560923885
vn 0.9008255476531968 -0.2768001061962072 0.3345071507532931
v 0.0038392947255013 -0.0131316465015583 -0.0152461397136021
vn -0.0067112639141322 0.5965187280665659 0.8025710971636851
v 0.0061805128174769 -0.0228974744370854 -0.0304114629845689
vn 0.9139922860653499 -0.2838062273729715 0.2899519379437861
v 0.0045125794833320 -0.0113244737951713 -0.0166522917230279
vn 0.7871934185084652 -0.4829606978337097 0.3835042192791789
v 0.0059676297893166 -0.0097342141369161 -0.0176363046522502
vn 0.7933875763752031 -0.4749144746214592 0.3807786698969686
v 0.0056914090994416 -0.0143364723454241 -0.0228651147306257
vn 0.9368571912927756 -0.2342684315057413 0.2596476557237741
v 0.0065416299526483 -0.0204318076989616 -0.0321906232410562
vn -0.9179657391957616 0.3862122989459102 0.0904376127819284
v 0.0021867034501339 0.0351211148329814 -0.0129961555627112
vn -0.9422572347009019 0.2430732381730956 0.2303621161082157
v 0.0010746345145936 0.0300388868967034 -0.0121822257170685
vn -0.9685089697211093 0.2393844531152690 0.0684504139977171
v 0.0014382630725617 0.0315860622667977 -0.0112231143315281
vn -0.9526918198854032 0.2806207523062712 0.1167488316793823
v 0.0026427042238360 0.0349191664045824 -0.0087896969643035
vn 0.8816401057974684 0.2133635848726899 -0.4209355110936863
v 0.0063863294281593 0.0371651654417179 -0.0027987375708182
vn 0.7118480341914259 0.6380845265683142 -0.2934629672921152
v 0.0049792740412817 0.0406430755547152 -0.0045530155034593
vn 0.8701199808259726 0.2411296130701252 -0.4298229038430370
v 0.0056645259035714 0.0390714516397973 -0.0031905119833149
vn 0.6848684546623608 0.1113258237762651 -0.7201123251055532
v 0.0068962352373402 0.0417439592617405 -0.0016059286609765
vn -0.8652049288800263 0.2581617908704541 0.4298522080625719
v 0.0013025329780104 0.0355802258994705 -0.0150515447616335
vn 0.8312275549774686 -0.3324745838006921 -0.4455574070450811
v -0.0040850180536071 0.0219324853966072 -0.0179467300361834
vn 0.6701833583862815 -0.4561239463981224 -0.5854956973917808
v -0.0075127041609102 0.0158682960286897 -0.0182804017991092
vn 0.4669283223168740 -0.4321542898170510 -0.7715054190419338
v -0.0108882581011236 0.0106393871036639 -0.0173944019500512
vn 0.8436343844345703 -0.1645439209069008 -0.5110834799641711
v 0.0014415138742146 0.0349479994481498 -0.0153110676011853
vn 0.9940371643173933 0.0685913182555986 -0.0847664262299348
v 0.0097329190387373 0.0373406927377117 -0.0059967480217276
vn 0.8219887299625426 -0.0782248102585808 0.5641058472260109
v 0.0067540400603808 0.0380755732228913 -0.0015541583074551
vn 0.6798162005449997 -0.4394635756538440 -0.5871300530121917
v -0.0093129412853602 0.0114319452416033 -0.0168849400215139
vn 0.7111553263417260 -0.4054209953969574 -0.5743621839111046
v -0.0064352065771749 0.0136949912869088 -0.0150421098821756
vn 0.8582676755058513 -0.2440204504044016 -0.4514760425163397
v -0.0024333446686226 0.0164423401650584 -0.0118394611462426
vn 0.1406075428119656 0.9215529401773204 -0.3618973574854030
v 0.0021152279453291 0.0366612606085679 -0.0106865791788302
vn 0.8406550005257343 -0.2761956820737647 -0.4658488116276413
v -0.0006195396990967 0.0190737650833192 -0.0070560574450827
vn 0.7778860214987884 -0.3038493004660625 -0.5500626693051174
v 0.0039831562195981 0.0198266103472550 -0.0033638260972177
vn 0.9218559621058938 -0.1241738414453713 -0.3671000438988215
v 0.0057258554912376 0.0202142978234557 0.0004314698592353
vn 0.9329725683257749 -0.3574960652643149 -0.0419374542877841
v 0.0061578609970927 0.0324280208268859 -0.0014685826008800
vn -0.7891162228442800 -0.6119183579887751 -0.0533995318359452
v 0.0011704217379033 -0.0058976211562140 0.0487306669333885
vn -0.4010414364114115 -0.4683010170992563 0.7873118338148321
v 0.0020825186894225 -0.0060465144934674 0.0369582803002190
vn -0.9025444210282345 -0.4305694680837174 0.0048478061959631
v 0.0010975324217256 -0.0040726111906775 0.0288945574556765
vn -0.1437608985561966 -0.0797861097369772 0.9863908863829562
v 0.0037477011656665 -0.0132341362122693 0.0366195867348472
vn -0.3001497532060800 -0.1264258797073139 0.9454769286400176
v 0.0060284220241245 -0.0156782867276085 0.0347320747808866
vn 0.3079140362961836 -0.4736046876807851 0.8251591034816125
v 0.0046944038203008 -0.0147735350146185 0.0351019355310610
vn -0.7137742496415422 -0.0637234108846888 0.6974708936248699
v 0.0051610066639185 -0.0151494006897157 0.0338927045205563
vn -0.1318055147909414 0.7715514821987827 0.6223629299593259
v 0.0071166639813365 -0.0238045610328892 0.0450367940494327
vn 0.6957021003990969 0.7110954001082580 -0.1016952282320144
v -0.0108997891441206 0.0096793374160722 0.0179010717344272
vn -0.7205675853746772 -0.6933828958401034 0.0015857691192945
v -0.0051810464396860 0.0056243313038781 0.0260902301832967
vn 0.1815270702917170 -0.7237082193603458 -0.6658035265613901
v -0.0075184657253221 0.0080468461693105 0.0232284024464939
vn 0.9107212493115006 0.4066075913224961 -0.0725056737877630
v -0.0020483703770765 0.0014465329479751 0.0314739829666692
vn 0.7867300768565254 0.6040795459447444 -0.1270578149525523
v -0.0039725240003511 0.0043732259539569 0.0281882944051232
vn 0.9409231662740735 0.3073200987089070 0.1421898452714541
v 0.0059386320921540 -0.0103902219385099 0.0172155412985042
vn 0.8957363637596326 -0.3670429699876009 -0.2508701353715749
v 0.0063718983677366 -0.0178008649197332 0.0337477268677286
vn 0.3851561866431974 -0.1418098900250860 0.9118907099984864
v 0.0012592407571816 -0.0042678018962010 0.0382318458626983
vn 0.5300947198749076 0.8390691983654920 0.1223211687118546
v -0.0093485941946582 0.0092209529272709 0.0182329287514243
vn -0.8067573030901842 -0.3808181383446585 0.4517966350232825
v 0.0012358783622674 -0.0047309290811921 0.0377997598310931
vn 0.6868946904949282 0.6171523079493869 0.3837951445271575
v -0.0071230459785177 0.0066327009940480 0.0192258264750045
vn -0.2432296976081645 -0.0483502787637953 0.9687629042985204
v -0.0048309130144009 0.0046873017979548 0.0197444273901532
vn 0.9128957146025386 0.3558172168739736 0.2000388023268989
v 0.0020355636969121 -0.0067615252042877 0.0375161458298028
vn -0.2093181071497669 -0.0260508818428635 0.9775005276594217
v -0.0027497779026692 0.0021683513440193 0.0201229421542864
vn 0.7050224692427831 0.4139722182016673 0.5758214310183324
v -0.0018929203232497 0.0000215864163190 0.0202492138888303
vn 0.7692767346750080 0.6310593960278802 -0.0998866566298243
v 0.0029883073305486 -0.0091521696055967 0.0370118856778715
vn 0.8619478040486606 0.5004042603383941 0.0814957626559582
v -0.0009286991988581 -0.0039224505177568 0.0199953159007136
vn 0.8798038132310905 0.4752814063598151 0.0072687683048085
v 0.0061466265203125 -0.0144274406197942 0.0280078014779878
vn 0.7179948590648492 0.6257644524484174 0.3047986752077176
v 0.0040342944656414 -0.0074657586378682 0.0186910629596431
vn 0.8873204037804481 0.2892855203919973 -0.3591328288063259
v 0.0087752286682707 -0.0131531233931505 0.0355288455728320
vn 0.8868159290840310 0.4254654681771884 0.1803791654033054
v 0.0055155272111193 -0.0093622182066074 0.0177935219258186
vn 0.9409231662740735 0.3073200987089070 0.1421898452714541
v 0.0057119731515020 -0.0124885380581939 0.0232505950921710
vn -1.0000000000000000 -0.0000000000000066 0.0000000000000009
v -0.0109060000000000 -0.0203672261803222 -0.0000947989413591
vn -1.0000000000000000 -0.0000000000000052 0.0000000000000009
v -0.0109060000000000 -0.0200769391986267 0.0001055820560629
vn -1.0000000000000000 -0.0000000000000052 0.0000000000000009
v -0.0109060000000000 -0.0201418562474148 0.0035904646878953
vn -0.8948609218930204 -0.1685052702943029 0.4133157441373576
v -0.0109060000000000 -0.0197480000000000 0.0033720000000000
vn -0.7494104684816160 -0.4604201307550955 0.4758122034223435
v -0.0101072228990602 -0.0187789159898696 0.0062351030198673
vn -0.1335256059002436 0.9903284189986366 -0.0376899866361559
v -0.0070330000000000 -0.0187170000000000 0.0071900000000000
vn -0.1881184134202392 -0.7097806295907346 0.6788393921908423
v -0.0056680000000000 -0.0184130000000000 0.0085720000000000
vn -0.3321016941657052 0.9424012457526304 -0.0398541934576369
v -0.0091733933317807 -0.0184423360213800 0.0080221206541447
vn -0.1154136133946562 -0.8672134695827058 0.4843763991128326
v -0.0081522815206953 -0.0164461834067005 0.0115013952750669
vn -0.0111293532522930 -0.8345204183992230 0.5508646011235170
v -0.0007451941649851 -0.0172648703984220 0.0104107916714013
vn -0.6728678777758955 -0.4761153251884752 0.5661828469479053
v -0.0096240000000000 -0.0197910000000000 0.0048640000000000
vn -1.0000000000000000 0.0000000000000000 0.0000000000000000
v -0.0109060000000000 0.0069799117644214 -0.0191964306138937
vn -1.0000000000000000 -0.0000000000000013 0.0000000000000023
v -0.0109060000000000 0.0092570000000000 -0.0181800000000000
vn -1.0000000000000000 -0.0000000000000004 0.0000000000000015
v -0.0109060000000000 0.0070365767755019 -0.0187760216625178
vn -1.0000000000000000 0.0000000000000000 0.0000000000000000
v -0.0109060000000000 0.0103430166999232 -0.0175834811532856
vn -1.0000000000000000 -0.0000000000000022 0.0000000000000031
v -0.0109060000000000 0.0101570000000000 -0.0175410000000000
vn -1.0000000000000000 -0.0000000000000026 0.0000000000000046
v -0.0109060000000000 0.0099269891392100 -0.0174214901799636
vn -0.7238126796758312 -0.6788733968700464 0.1233941480079870
v -0.0069488813867263 0.0109335409619276 -0.0197722029032157
vn 0.0804224579661471 -0.6857913722752769 -0.7233411518553855
v -0.0080828142280054 0.0001475447825819 -0.0196759866304972
vn -0.1703601455500783 -0.6942819547946627 -0.6992495892416799
v -0.0056440000000000 0.0015840000000000 -0.0202470000000000
vn -0.3336372035509204 -0.3542442947691660 0.8736115819002275
v -0.0047080000000000 0.0006790000000000 -0.0200480000000000
vn 0.2009122195051787 -0.3994537397126509 0.8944668746706502
v -0.0117556254085314 -0.0009283332975001 -0.0194768213838841
vn -0.1196401077404339 -0.1160737705396837 0.9860086837409487
v -0.0050070872169761 -0.0005911970581635 -0.0201816127677764
vn -0.3325479151548422 -0.4130028817431637 0.8478446224385753
v -0.0037740000000000 -0.0002550000000000 -0.0200620000000000
vn -0.5844924710667300 -0.7091978088312640 -0.3942169697200282
v -0.0027820000000000 -0.0012390000000000 -0.0200300000000000
vn -0.5374235899463622 -0.7245805204767760 0.4314614169479914
v -0.0028920000000000 -0.0011570000000000 -0.0202280000000000
vn -0.0738728028690128 -0.1640992408717069 -0.9836738525251170
v -0.0024961160272774 -0.0039427774660079 -0.0197211914266091
vn -0.0423394795309013 -0.2039488860173982 -0.9780655501372670
v 0.0001940513148669 -0.0073700341077583 -0.0191229852133536
vn -0.2924832850309280 -0.4791327750985278 -0.8275779792889010
v -0.0007469517928936 -0.0026084649548622 -0.0200751454673138
vn -0.0376722673025049 -0.0559654330239385 0.9977217400571824
v -0.0048908947490026 0.0086929266327940 -0.0200274551839378
vn -0.1898363726191732 -0.0627427296369072 -0.9798089107109123
v -0.0109060000000000 0.0070370000000000 -0.0187560000000000
vn -1.0000000000000000 -0.0000000000000024 -0.0000000000000041
v -0.0109060000000000 0.0131704082798876 0.0156791227249795
vn -1.0000000000000000 -0.0000000000000024 -0.0000000000000041
v -0.0109060000000000 0.0101304105453749 0.0175000204268960
vn -1.0000000000000000 -0.0000000000000024 -0.0000000000000041
v -0.0109060000000000 0.0127608459307800 0.0154966805865838
vn -0.7083830176580816 0.0781914544509914 -0.7014838535165783
v -0.0091409440099679 0.0149478621247908 0.0136404371063242
vn -0.6840944487460183 0.7206196420738428 -0.1127923607885223
v -0.0080944786511228 0.0154862549441883 0.0125069611165120
vn -0.6224707834983934 -0.1658961168607868 -0.7648585503878534
v -0.0096010000000000 0.0138070000000000 0.0145230000000000
vn -0.3767723343840811 0.8905685056493040 0.2548143339538334
v -0.0064560000000000 0.0162750000000000 0.0121730000000000
vn -0.3062667860015511 0.8320418412261963 0.4625008435032322
v -0.0077787014515572 0.0195085600435657 0.0054799164775475
vn -0.6167927077954742 -0.0886152029949025 -0.7821215387703493
v -0.0109060000000000 0.0131110000000000 0.0156310000000000
vn -0.7026976733082894 0.2689289433953180 -0.6587057031265137
v -0.0109060000000000 0.0127240000000000 0.0154730000000000
vn -1.0000000000000000 -0.0000000000000008 0.0000000000000010
v -0.0180250000000000 0.0002520000000000 0.0200010000000000
vn -1.0000000000000000 0.0000000000000000 0.0000000000000000
v -0.0180250000000000 -0.0186530941177810 0.0072360867498861
vn -1.0000000000000000 0.0000000000000032 -0.0000000000000023
v -0.0180250000000000 -0.0156045678358137 0.0125869120026241
vn -1.0000000000000000 0.0000000000000000 -0.0000000000000004
v -0.0180250000000000 -0.0176791102969274 0.0093884364821680
vn -1.0000000000000000 0.0000000000000016 -0.0000000000000011
v -0.0180250000000000 -0.0164237315624652 0.0093939853564641
vn -1.0000000000000000 0.0000000000000000 0.0000000000000000
v -0.0180250000000000 -0.0174211098333939 0.0073584102490309
vn -1.0000000000000000 0.0000000000000000 0.0000000000000000
v -0.0180250000000000 -0.0191160000000000 0.0058900000000000
vn -1.0000000000000000 0.0000000000000000 0.0000000000000000
v -0.0180250000000000 -0.0179030000000000 0.0060770000000000
vn -1.0000000000000000 0.0000000000000033 -0.0000000000000024
v -0.0180250000000000 -0.0140428061975454 0.0127558409516618
vn -1.0000000000000000 0.0000000000000000 0.0000000000000000
v -0.0180250000000000 -0.0183000277833833 0.0047702513385896
vn -1.0000000000000000 0.0000000000000000 0.0000000000000000
v -0.0180250000000000 -0.0197052561485059 0.0035955160336506
vn -1.0000000000000000 0.0000000000000017 -0.0000000000000017
v -0.0180250000000000 -0.0129085996608708 0.0152990277217710
vn -1.0000000000000000 0.0000000000000001 -0.0000000000000005
v -0.0180250000000000 -0.0105390986008587 0.0157297709649506
vn -1.0000000000000000 0.0000000000000000 0.0000000000000000
v -0.0180250000000000 -0.0187509414060101 0.0025348039732900
vn -1.0000000000000000 0.0000000000000001 -0.0000000000000011
v -0.0180250000000000 -0.0105970452923078 0.0169825266714873
vn -1.0000000000000000 0.0000000000000000 0.0000000000000000
v -0.0180250000000000 -0.0200258097284579 -0.0016518704669667
vn -1.0000000000000000 0.0000000000000004 -0.0000000000000021
v -0.0180250000000000 -0.0077496138406806 0.0172612643700248
vn -1.0000000000000000 0.0000000000000008 -0.0000000000000020
v -0.0180250000000000 -0.0080764579999340 0.0183161061500482
vn -1.0000000000000000 0.0000000000000000 0.0000000000000000
v -0.0180250000000000 -0.0189034083934403 -0.0015976810520451
vn -1.0000000000000000 0.0000000000000006 -0.0000000000000009
v -0.0180250000000000 -0.0043114876696043 0.0184529714800844
vn -1.0000000000000000 0.0000000000000005 0.0000000000000011
v -0.0180250000000000 -0.0044941659870946 0.0195373590102911
vn -1.0000000000000000 0.0000000000000000 0.0000000000000000
v -0.0180250000000000 -0.0188518719573863 -0.0067680507753709
vn -1.0000000000000000 0.0000000000000000 0.0000000000000000
v -0.0180250000000000 -0.0156380621280091 -0.0125771183563568
vn -1.0000000000000000 0.0000000000000000 0.0000000000000000
v -0.0180250000000000 -0.0177997406258106 -0.0064997373949873
vn -1.0000000000000000 0.0000000000000000 0.0000000000000000
v -0.0180250000000000 0.0021697995793017 0.0198989736289302
vn -1.0000000000000000 0.0000000000000000 0.0000000000000000
v -0.0180250000000000 -0.0140800498025939 -0.0127493781881665
vn -1.0000000000000000 0.0000000000000000 0.0000000000000000
v -0.0180250000000000 -0.0129219822733393 -0.0152751073981416
vn -1.0000000000000000 -0.0000000000000017 -0.0000000000000032
v -0.0180250000000000 0.0069477787115983 0.0176516787246129
vn -1.0000000000000000 -0.0000000000000009 -0.0000000000000022
v -0.0180250000000000 0.0097854821055931 0.0174513056087274
vn -1.0000000000000000 0.0000000000000007 -0.0000000000000003
v -0.0180250000000000 0.0117011934727771 0.0149316164610251
vn -1.0000000000000000 -0.0000000000000008 -0.0000000000000020
v -0.0180250000000000 0.0063494242846708 0.0190363355740758
vn -1.0000000000000000 -0.0000000000000010 -0.0000000000000002
v -0.0180250000000000 0.0149205700416552 0.0116556363347621
vn -1.0000000000000000 0.0000000000000000 0.0000000000000000
v -0.0180250000000000 -0.0082142719185897 -0.0171246266892628
vn -1.0000000000000000 -0.0000000000000026 -0.0000000000000017
v -0.0180250000000000 0.0161951107826944 0.0117857102080219
vn -1.0000000000000000 -0.0000000000000001 -0.0000000000000063
v -0.0180250000000000 0.0002238218016064 -0.0200671853576873
vn -1.0000000000000000 -0.0000000000000013 0.0000000000000030
v -0.0180250000000000 0.0072295919853035 -0.0187454079570672
vn -1.0000000000000000 -0.0000000000000013 -0.0000000000000003
v -0.0180250000000000 0.0200355027403212 0.0006984680742606
vn -1.0000000000000000 0.0000000000000000 0.0000000000000000
v -0.0180250000000000 0.0143138527371754 -0.0139915911687513
vn -1.0000000000000000 0.0000000000000002 -0.0000000000000011
v -0.0180250000000000 0.0187500172802849 -0.0025333170187408
vn -1.0000000000000000 0.0000000000000010 0.0000000000000002
v -0.0180250000000000 0.0188332031045362 -0.0067782118776028
vn -1.0000000000000000 0.0000000000000000 0.0000000000000000
v -0.0180250000000000 0.0146143238546247 -0.0120360986914092
vn -1.0000000000000000 -0.0000000000000014 0.0000000000000013
v -0.0180250000000000 0.0117857044088940 -0.0161948864096311
vn -1.0000000000000000 -0.0000000000000018 0.0000000000000022
v -0.0180250000000000 0.0105419986524920 -0.0157258428342722
vn -1.0000000000000000 0.0000000000000010 0.0000000000000002
v -0.0180250000000000 0.0168810137405924 -0.0086062271110733
vn -1.0000000000000000 0.0000000000000006 0.0000000000000000
v -0.0180250000000000 0.0170067453730278 -0.0106515571849815
vn -1.0000000000000000 0.0000000000000012 -0.0000000000000011
v -0.0180250000000000 0.0197043850950221 -0.0035938969224496
vn -1.0000000000000000 0.0000000000000010 -0.0000000000000004
v -0.0180250000000000 0.0181854414375155 -0.0052186875163372
vn -1.0000000000000000 -0.0000000000000008 0.0000000000000003
v -0.0180250000000000 0.0126941018267685 -0.0140163809381288
vn -1.0000000000000000 -0.0000000000000003 0.0000000000000021
v -0.0180250000000000 0.0060740216120275 -0.0179947364009663
vn -1.0000000000000000 -0.0000000000000022 0.0000000000000004
v -0.0180250000000000 0.0189023780937560 0.0015989634259714
vn -1.0000000000000000 -0.0000000000000022 0.0000000000000001
v -0.0180250000000000 0.0195984623972959 0.0040218827682692
vn -1.0000000000000000 -0.0000000000000000 -0.0000000000000009
v -0.0180250000000000 0.0035540000000000 -0.0196830000000000
vn -1.0000000000000000 0.0000000000000000 -0.0000000000000030
v -0.0180250000000000 0.0002177181006639 -0.0189692783429961
vn -1.0000000000000000 -0.0000000000000029 -0.0000000000000016
v -0.0180250000000000 0.0185442461484691 0.0076675424384432
vn -1.0000000000000000 -0.0000000000000023 -0.0000000000000013
v -0.0180250000000000 0.0175067786282121 0.0073638208586791
vn -1.0000000000000000 -0.0000000000000003 0.0000000000000000
v -0.0180250000000000 -0.0038939697956850 -0.0185151057904321
vn -1.0000000000000000 0.0000000000000007 0.0000000000000007
v -0.0180250000000000 0.0129638131036607 0.0153200290694083
vn -1.0000000000000000 -0.0000000000000002 -0.0000000000000021
v -0.0180250000000000 -0.0040572059934478 -0.0196011521615045
vn -1.0000000000000000 0.0000000000000000 0.0000000000000000
v -0.0180250000000000 -0.0076931598080315 -0.0185115431594756
vn -1.0000000000000000 0.0000000000000000 0.0000000000000000
v -0.0180250000000000 -0.0112920000000000 -0.0151640000000000
vn -1.0000000000000000 0.0000000000000000 0.0000000000000000
v -0.0180250000000000 -0.0110354921841330 -0.0167002401219544
vn -1.0000000000000000 0.0000000000000001 -0.0000000000000008
v -0.0180250000000000 0.0029712048958992 0.0186860819157600
vn -1.0000000000000000 0.0000000000000000 0.0000000000000000
v -0.0180250000000000 0.0006819422897223 0.0188993808142896
vn -1.0000000000000000 0.0000000000000000 0.0000000000000000
v -0.0180250000000000 -0.0164337110876805 -0.0093573013144934
vn -1.0000000000000000 -0.0000000000000009 0.0000000000000031
v -0.0180250000000000 -0.0011836556667793 0.0199732424425994
vn -1.0000000000000000 0.0000000000000000 0.0000000000000000
v -0.0180250000000000 -0.0176867306369444 -0.0093530376234378
vn -1.0000000000000000 -0.0000000000000005 0.0000000000000016
v -0.0180250000000000 -0.0011398857613441 0.0188774856320911
# 542 vertices, 0 vertices normals


usemtl material_0
f 62//62 64//64 63//63
f 72//72 78//78 70//70
f 137//137 121//121 136//136
f 211//211 162//162 212//212
f 149//149 146//146 148//148
f 157//157 159//159 145//145
f 146//146 153//153 148//148
f 146//146 149//149 150//150
f 149//149 151//151 150//150
f 151//151 149//149 232//232
f 218//218 155//155 154//154
f 148//148 153//153 158//158
f 157//157 158//158 159//159
f 145//145 211//211 212//212
f 156//156 163//163 160//160
f 161//161 162//162 164//164
f 164//164 205//205 165//165
f 227//227 167//167 166//166
f 168//168 170//170 169//169
f 170//170 173//173 172//172
f 175//175 176//176 226//226
f 181//181 183//183 182//182
f 187//187 184//184 185//185
f 225//225 224//224 180//180
f 177//177 194//194 193//193
f 221//221 196//196 195//195
f 197//197 193//193 198//198
f 173//173 197//197 199//199
f 173//173 199//199 172//172
f 200//200 201//201 171//171
f 170//170 172//172 169//169
f 168//168 169//169 208//208
f 213//213 220//220 189//189
f 232//232 149//149 217//217
f 152//152 151//151 232//232
f 157//157 148//148 158//158
f 212//212 157//157 145//145
f 161//161 212//212 162//162
f 165//165 161//161 164//164
f 204//204 219//219 203//203
f 171//171 166//166 205//205
f 196//196 221//221 201//201
f 202//202 189//189 220//220
f 224//224 183//183 180//180
f 225//225 186//186 226//226
f 186//186 184//184 188//188
f 184//184 187//187 188//188
f 185//185 190//190 187//187
f 190//190 177//177 187//187
f 192//192 177//177 190//190
f 193//193 194//194 198//198
f 177//177 192//192 194//194
f 193//193 197//197 173//173
f 165//165 205//205 166//166
f 219//219 202//202 203//203
f 220//220 203//203 202//202
f 227//227 204//204 167//167
f 203//203 167//167 204//204
f 166//166 167//167 165//165
f 200//200 171//171 205//205
f 221//221 171//171 201//201
f 191//191 195//195 196//196
f 191//191 174//174 195//195
f 222//222 174//174 191//191
f 179//179 174//174 222//222
f 179//179 178//178 181//181
f 179//179 222//222 178//178
f 183//183 181//181 223//223
f 179//179 181//181 182//182
f 223//223 180//180 183//183
f 226//226 186//186 188//188
f 226//226 224//224 225//225
f 175//175 226//226 188//188
f 176//176 175//175 228//228
f 175//175 213//213 228//228
f 189//189 228//228 213//213
f 154//154 163//163 156//156
f 154//154 155//155 163//163
f 218//218 231//231 155//155
f 147//147 231//231 218//218
f 231//231 147//147 152//152
f 152//152 232//232 231//231
f 216//216 232//232 217//217
f 215//215 216//216 217//217
f 215//215 214//214 216//216
f 230//230 214//214 215//215
f 230//230 229//229 214//214
f 230//230 233//233 229//229
f 230//230 210//210 233//233
f 207//207 233//233 210//210
f 234//234 233//233 207//207
f 234//234 207//207 206//206
f 206//206 207//207 168//168
f 208//208 206//206 168//168
f 206//206 208//208 209//209
f 208//208 160//160 209//209
f 160//160 163//163 209//209
f 266//266 249//249 257//257
f 250//250 254//254 251//251
f 253//253 254//254 262//262
f 255//255 258//258 259//259
f 256//256 266//266 257//257
f 335//335 256//256 257//257
f 266//266 260//260 249//249
f 263//263 264//264 265//265
f 266//266 267//267 260//260
f 265//265 264//264 268//268
f 275//275 272//272 270//270
f 273//273 277//277 274//274
f 276//276 299//299 278//278
f 280//280 282//282 279//279
f 283//283 329//329 321//321
f 296//296 285//285 279//279
f 286//286 287//287 284//284
f 326//326 290//290 328//328
f 291//291 314//314 292//292
f 327//327 291//291 292//292
f 300//300 294//294 293//293
f 297//297 283//283 298//298
f 297//297 298//298 281//281
f 276//276 275//275 299//299
f 303//303 275//275 276//276
f 302//302 273//273 274//274
f 275//275 303//303 305//305
f 274//274 269//269 302//302
f 304//304 302//302 269//269
f 275//275 305//305 272//272
f 306//306 270//270 272//272
f 269//269 261//261 244//244
f 270//270 306//306 267//267
f 311//311 309//309 307//307
f 308//308 309//309 310//310
f 270//270 267//267 266//266
f 335//335 252//252 256//256
f 257//257 249//249 245//245
f 245//245 249//249 248//248
f 258//258 255//255 247//247
f 259//259 263//263 265//265
f 310//310 265//265 268//268
f 244//244 312//312 311//311
f 271//271 269//269 244//244
f 304//304 269//269 271//271
f 301//301 277//277 273//273
f 280//280 277//277 301//301
f 280//280 279//279 277//277
f 296//296 279//279 282//282
f 296//296 315//315 285//285
f 317//317 284//284 315//315
f 318//318 324//324 319//319
f 321//321 295//295 283//283
f 283//283 295//295 298//298
f 294//294 297//297 293//293
f 297//297 281//281 293//293
f 289//289 300//300 299//299
f 300//300 278//278 299//299
f 290//290 322//322 294//294
f 323//323 325//325 324//324
f 289//289 294//294 300//300
f 290//290 294//294 289//289
f 290//290 326//326 322//322
f 327//327 326//326 328//328
f 314//314 285//285 313//313
f 328//328 291//291 327//327
f 292//292 314//314 313//313
f 285//285 315//315 313//313
f 316//316 315//315 296//296
f 317//317 315//315 316//316
f 286//286 284//284 317//317
f 287//287 286//286 288//288
f 287//287 288//288 319//319
f 318//318 323//323 324//324
f 288//288 318//318 319//319
f 325//325 329//329 324//324
f 320//320 329//329 325//325
f 329//329 320//320 321//321
f 247//247 331//331 330//330
f 248//248 330//330 245//245
f 246//246 332//332 251//251
f 330//330 331//331 245//245
f 247//247 255//255 331//331
f 258//258 263//263 259//259
f 310//310 268//268 308//308
f 308//308 307//307 309//309
f 312//312 309//309 311//311
f 261//261 312//312 244//244
f 262//262 312//312 261//261
f 253//253 262//262 261//261
f 251//251 254//254 253//253
f 251//251 332//332 250//250
f 246//246 333//333 332//332
f 333//333 246//246 334//334
f 335//335 334//334 252//252
f 246//246 252//252 334//334
f 358//358 357//357 356//356
f 357//357 360//360 361//361
f 360//360 357//357 359//359
f 358//358 359//359 357//357
f 355//355 358//358 356//356
f 385//385 387//387 382//382
f 388//388 389//389 386//386
f 387//387 388//388 386//386
f 387//387 386//386 382//382
f 385//385 382//382 384//384
f 382//382 383//383 384//384
f 382//382 390//390 383//383
f 406//406 407//407 408//408
f 409//409 411//411 412//412
f 410//410 411//411 409//409
f 409//409 406//406 410//410
f 410//410 406//406 408//408
f 406//406 405//405 407//407
f 437//437 436//436 435//435
f 438//438 436//436 437//437
f 440//440 442//442 441//441
f 444//444 443//443 441//441
f 440//440 439//439 442//442
f 443//443 440//440 441//441
f 445//445 442//442 439//439
f 439//439 438//438 445//445
f 438//438 339//339 445//445
f 447//447 448//448 451//451
f 447//447 450//450 449//449
f 450//450 447//447 451//451
f 447//447 446//446 448//448
f 464//464 456//456 453//453
f 457//457 455//455 454//454
f 456//456 454//454 453//453
f 455//455 453//453 454//454
f 459//459 458//458 460//460
f 461//461 459//459 463//463
f 462//462 461//461 463//463
f 463//463 459//459 460//460
f 460//460 458//458 457//457
f 457//457 458//458 455//455
f 452//452 456//456 464//464
f 464//464 465//465 452//452
f 468//468 467//467 466//466
f 470//470 471//471 469//469
f 472//472 473//473 470//470
f 472//472 470//470 469//469
f 469//469 471//471 474//474
f 471//471 475//475 474//474
f 538//538 542//542 476//476
f 477//477 479//479 481//481
f 486//486 485//485 489//489
f 478//478 480//480 479//479
f 482//482 477//477 483//483
f 485//485 486//486 482//482
f 487//487 484//484 478//478
f 488//488 487//487 490//490
f 494//494 491//491 489//489
f 490//490 493//493 492//492
f 493//493 496//496 495//495
f 499//499 491//491 494//494
f 498//498 539//539 501//501
f 506//506 537//537 500//500
f 504//504 505//505 503//503
f 531//531 534//534 508//508
f 509//509 530//530 507//507
f 526//526 525//525 530//530
f 512//512 514//514 525//525
f 517//517 523//523 513//513
f 515//515 520//520 519//519
f 516//516 520//520 513//513
f 515//515 522//522 521//521
f 522//522 514//514 521//521
f 511//511 524//524 518//518
f 527//527 510//510 528//528
f 533//533 528//528 510//510
f 531//531 528//528 533//533
f 532//532 507//507 505//505
f 535//535 508//508 536//536
f 501//501 535//535 502//502
f 506//506 503//503 537//537
f 537//537 538//538 500//500
f 499//499 539//539 541//541
f 540//540 542//542 496//496
f 518//518 517//517 511//511
f 534//534 531//531 533//533
f 536//536 508//508 534//534
f 502//502 535//535 536//536
f 498//498 501//501 502//502
f 541//541 539//539 498//498
f 497//497 499//499 541//541
f 491//491 499//499 497//497
f 486//486 489//489 491//491
f 482//482 483//483 485//485
f 477//477 481//481 483//483
f 479//479 480//480 481//481
f 478//478 484//484 480//480
f 487//487 488//488 484//484
f 490//490 492//492 488//488
f 493//493 495//495 492//492
f 496//496 542//542 495//495
f 476//476 542//542 540//540
f 500//500 538//538 476//476
f 504//504 503//503 506//506
f 532//532 505//505 504//504
f 509//509 507//507 532//532
f 529//529 530//530 509//509
f 526//526 530//530 529//529
f 512//512 525//525 526//526
f 521//521 514//514 512//512
f 515//515 519//519 522//522
f 520//520 516//516 519//519
f 513//513 523//523 516//516
f 517//517 518//518 523//523
f 524//524 511//511 527//527
f 524//524 527//527 528//528
f 3//3 2//2 4//4
f 3//3 5//5 2//2
f 7//7 6//6 5//5
f 2//2 5//5 1//1
f 3//3 8//8 5//5
f 11//11 9//9 10//10
f 12//12 13//13 16//16
f 11//11 12//12 16//16
f 16//16 9//9 11//11
f 16//16 13//13 15//15
f 9//9 16//16 14//14
f 16//16 15//15 19//19
f 16//16 20//20 17//17
f 16//16 19//19 20//20
f 2//2 18//18 17//17
f 1//1 18//18 2//2
f 17//17 20//20 21//21
f 17//17 21//21 2//2
f 5//5 6//6 1//1
f 26//26 24//24 25//25
f 30//30 31//31 24//24
f 26//26 27//27 24//24
f 27//27 30//30 24//24
f 24//24 31//31 29//29
f 31//31 30//30 23//23
f 32//32 31//31 23//23
f 32//32 23//23 33//33
f 34//34 35//35 30//30
f 28//28 23//23 36//36
f 36//36 23//23 30//30
f 22//22 23//23 28//28
f 37//37 30//30 35//35
f 30//30 37//37 36//36
f 38//38 37//37 39//39
f 37//37 35//35 39//39
f 50//50 54//54 52//52
f 46//46 47//47 45//45
f 45//45 47//47 49//49
f 45//45 49//49 50//50
f 51//51 50//50 49//49
f 53//53 50//50 51//51
f 50//50 52//52 44//44
f 50//50 53//53 56//56
f 50//50 56//56 54//54
f 56//56 57//57 54//54
f 48//48 55//55 54//54
f 57//57 56//56 42//42
f 43//43 55//55 48//48
f 54//54 57//57 48//48
f 48//48 57//57 58//58
f 40//40 43//43 41//41
f 43//43 48//48 41//41
f 59//59 48//48 58//58
f 60//60 59//59 58//58
f 65//65 63//63 66//66
f 66//66 67//67 65//65
f 68//68 65//65 67//67
f 71//71 72//72 73//73
f 73//73 79//79 71//71
f 66//66 64//64 76//76
f 66//66 63//63 64//64
f 66//66 76//76 61//61
f 69//69 66//66 61//61
f 77//77 69//69 61//61
f 77//77 78//78 69//69
f 72//72 69//69 78//78
f 71//71 79//79 82//82
f 82//82 81//81 71//71
f 81//81 82//82 83//83
f 86//86 87//87 89//89
f 91//91 90//90 88//88
f 88//88 89//89 91//91
f 88//88 86//86 89//89
f 87//87 86//86 84//84
f 87//87 84//84 85//85
f 95//95 96//96 97//97
f 96//96 95//95 93//93
f 94//94 96//96 93//93
f 98//98 94//94 92//92
f 94//94 93//93 92//92
f 99//99 113//113 101//101
f 101//101 100//100 102//102
f 102//102 99//99 101//101
f 103//103 100//100 109//109
f 103//103 109//109 104//104
f 110//110 106//106 107//107
f 106//106 110//110 109//109
f 109//109 110//110 108//108
f 105//105 109//109 108//108
f 104//104 109//109 105//105
f 101//101 109//109 100//100
f 114//114 101//101 113//113
f 111//111 114//114 115//115
f 114//114 111//111 101//101
f 116//116 111//111 115//115
f 116//116 112//112 111//111
f 112//112 117//117 111//111
f 118//118 117//117 112//112
f 120//120 136//136 121//121
f 125//125 122//122 121//121
f 132//132 128//128 127//127
f 127//127 128//128 129//129
f 128//128 130//130 129//129
f 131//131 128//128 132//132
f 126//126 128//128 131//131
f 131//131 133//133 126//126
f 125//125 124//124 122//122
f 126//126 133//133 135//135
f 126//126 135//135 125//125
f 125//125 135//135 123//123
f 123//123 134//134 125//125
f 134//134 124//124 125//125
f 120//120 121//121 122//122
f 121//121 137//137 138//138
f 121//121 138//138 119//119
f 139//139 142//142 140//140
f 139//139 140//140 98//98
f 142//142 141//141 140//140
f 143//143 141//141 142//142
f 144//144 143//143 142//142
f 237//237 240//240 235//235
f 236//236 240//240 237//237
f 238//238 239//239 236//236
f 236//236 237//237 238//238
f 235//235 240//240 242//242
f 235//235 242//242 241//241
f 242//242 243//243 241//241
f 339//339 341//341 340//340
f 338//338 339//339 347//347
f 341//341 342//342 340//340
f 339//339 338//338 341//341
f 344//344 343//343 346//346
f 344//344 345//345 343//343
f 344//344 342//342 341//341
f 342//342 344//344 346//346
f 350//350 338//338 347//347
f 352//352 338//338 350//350
f 338//338 352//352 351//351
f 352//352 353//353 351//351
f 351//351 353//353 336//336
f 351//351 336//336 354//354
f 354//354 336//336 68//68
f 372//372 366//366 376//376
f 370//370 362//362 364//364
f 368//368 370//370 364//364
f 363//363 369//369 365//365
f 371//371 363//363 362//362
f 370//370 371//371 362//362
f 371//371 369//369 363//363
f 371//371 370//370 372//372
f 373//373 371//371 372//372
f 375//375 366//366 372//372
f 373//373 372//372 374//374
f 372//372 376//376 374//374
f 376//376 366//366 378//378
f 367//367 366//366 377//377
f 378//378 366//366 367//367
f 379//379 378//378 380//380
f 381//381 378//378 367//367
f 381//381 380//380 378//378
f 392//392 397//397 393//393
f 392//392 391//391 397//397
f 398//398 397//397 391//391
f 399//399 398//398 391//391
f 391//391 401//401 399//399
f 395//395 394//394 400//400
f 401//401 391//391 394//394
f 401//401 394//394 402//402
f 402//402 394//394 403//403
f 403//403 394//394 404//404
f 404//404 394//394 395//395
f 396//396 404//404 395//395
f 417//417 413//413 415//415
f 417//417 415//415 414//414
f 425//425 416//416 420//420
f 413//413 417//417 421//421
f 425//425 420//420 422//422
f 417//417 423//423 421//421
f 417//417 416//416 427//427
f 423//423 417//417 427//427
f 423//423 427//427 424//424
f 424//424 427//427 426//426
f 416//416 425//425 430//430
f 428//428 430//430 425//425
f 430//430 428//428 432//432
f 416//416 429//429 427//427
f 416//416 430//430 429//429
f 429//429 430//430 431//431
f 419//419 430//430 432//432
f 431//431 430//430 433//433
f 418//418 433//433 434//434
l 337 349
l 348 349
l 1 75
l 74 75
l 80 1
# 500 faces, 0 coords texture

# End of File
