####
#
# OBJ File Generated by Meshlab
#
####
# Object cw.obj
#
# Vertices: 517
# Faces: 500
#
####
mtllib ./cw.obj.mtl

vn 0.6896780567651355 -0.7101344491381162 0.1416094706012660
v 0.0060487684614732 0.0374033244391393 -0.0076967960444859
vn 0.9720289267614520 -0.0080040184645357 0.2347247350140142
v 0.0061197701792653 0.0309825643642933 -0.0060243042340105
vn 0.8819198586478170 -0.0617931857613891 0.4673317505970175
v 0.0057216839370518 0.0270422169576856 -0.0055367632639441
vn 0.0204751822188557 -0.1999166820458745 -0.9795989419925245
v -0.0086878430355875 0.0176844194563407 0.0141169743484979
vn -0.7249256215837527 0.3430176120951783 -0.5973455959190891
v -0.0080336774754977 0.0182496128433943 0.0136476478963017
vn 0.8839069122906331 -0.4552436684944235 0.1070596688794559
v -0.0039653590309151 0.0257583424309203 0.0121919518691775
vn -0.0768431208276896 0.5412387195253627 0.8373504542710937
v 0.0001295939086242 0.0347087266513285 0.0078367782971067
vn -0.0768431208276896 0.5412387195253627 0.8373504542710937
v 0.0012055051434033 0.0375855619224883 0.0060760122356404
vn 0.8703195682927788 -0.3091943173358113 0.3833310881912828
v -0.0034999175214435 0.0265613566591080 0.0117637810661535
vn 0.8267035613896764 -0.5309339167761183 0.1861998861503285
v -0.0113320214741286 0.0139342452891379 0.0142921205639050
vn 0.6821260405699796 -0.3536965188172983 0.6400022166780730
v -0.0087288942905186 0.0154749452676222 0.0126830887074856
vn 0.8394835852117063 -0.4375181937200413 0.3222501207510280
v -0.0064276698082659 0.0212692567457118 0.0134326215086242
vn 0.9728510098094056 0.0371961107169763 0.2284236460184239
v 0.0037559323908079 0.0380953960535064 0.0010354464417621
vn 0.7433532057589207 -0.3585261775383954 0.5646990273655893
v -0.0069712350991362 0.0166031885602287 0.0111856783979084
vn 0.8045741708716336 -0.3005466988813220 0.5121836441724427
v -0.0044741433751185 0.0180608996095894 0.0086727132960612
vn 0.9199245002440178 -0.2350313533128808 0.3138457850771771
v -0.0021370931770776 0.0193803775821491 0.0051731631679991
vn 0.8435532366397157 -0.0613952792059612 0.5335246542062342
v 0.0018114039412808 0.0376376929577853 0.0060979192157459
vn 0.8703320966821867 -0.0148605078782500 0.4922410047836214
v 0.0040837098038379 0.0380881181828681 -0.0023071884247873
vn 0.8676090154428437 -0.0902359575184400 0.4889908672900031
v 0.0057419398519206 0.0379088392351640 -0.0035674302635547
vn 0.9173445466403511 -0.3304150845352113 0.2220469649889367
v 0.0058472455718493 0.0378126148034436 -0.0046628386369898
vn 0.8503530524182994 -0.1748352076392140 0.4963187850692678
v -0.0017473703574872 0.0202576446423728 0.0008427978047389
vn -0.0631246883223463 -0.9895934213279775 0.1293063578815628
v 0.0075710003149170 0.0375268197247477 -0.0060085531994893
vn 0.6210803303764935 0.0516203314674574 0.7820451167283227
v 0.0057669823996929 0.0195579075508444 -0.0050787224929179
vn 0.0638609445368831 0.3052192086000189 -0.9501384185814377
v -0.0107393478078130 0.0063887178198405 -0.0237533541426049
vn 0.0536166255336141 0.3902312125661557 -0.9191544256573735
v 0.0120180032458335 0.0049188239282323 -0.0194734094618493
vn -0.1511071546422266 -0.3410054498301744 -0.9278372222550950
v 0.0120180012921043 -0.0073375457914410 -0.0194155238712165
vn -0.0039741357632830 -0.7470836691414483 -0.6647181339087164
v -0.0179969458561530 -0.0196081590251445 -0.0060504142642012
vn 0.0027591259799337 -0.7396901193167345 -0.6729419845789248
v 0.0120180133949496 -0.0197305822654110 -0.0060922712830600
vn 0.0018300233082503 0.6928693516563703 -0.7210608244454640
v 0.0120181229998940 0.0146731175677054 -0.0143479823754473
vn -0.0419390208439062 0.4049250629522371 -0.9133875474976552
v -0.0179968855172755 0.0098203799568918 -0.0175805795045601
vn -0.0082053011673895 0.8474145489443378 -0.5308683973172794
v -0.0179969820672138 0.0169340701133987 -0.0110924557817183
vn 0.1098027899240087 0.9440452714981968 -0.3110014030302753
v 0.0120179724355280 0.0189221701147867 -0.0065052596794195
vn -0.0471473117713153 0.9824832566273651 -0.1802880512946583
v -0.0179970118485831 0.0198065836576117 -0.0032956154767238
vn 0.0536852842989572 0.9723038683132248 0.2274710485158042
v -0.0179970151553749 0.0194402840208753 0.0059773110275411
vn -0.0542931142432651 0.9973676987062068 0.0480617449043709
v -0.0021749752511638 0.0190903164699237 0.0058742079738375
vn 0.1182400014801373 0.9060762291068398 0.4062575157427943
v -0.0045259497052999 0.0178872875178957 0.0055202472777652
vn 0.1627327994697214 0.9369116323451744 0.3093778097295414
v 0.0053637568437165 0.0199927789373766 -0.0043373578449238
vn 0.0301671676399410 0.9846574479576953 0.1718710335630250
v 0.0005454301143630 0.0199395397486143 -0.0005329008474397
vn 0.0407226627935664 0.9990921200153218 -0.0125140104799073
v 0.0120174003804636 0.0198522501432726 0.0060951786692976
vn -0.0258047888148507 0.9477455724816440 0.3179818276500432
v 0.0023979166879314 0.0200888842787965 -0.0024819285379005
vn 0.1517546919357733 0.9440632833649979 0.2927712938072620
v 0.0059734984730493 0.0225466342628284 -0.0059637189207818
vn -0.2996452645077594 0.5040314456198750 -0.8100401331319417
v 0.0060443378519519 -0.0156602364482926 -0.0156907158189619
vn -0.0825189942142694 -0.7576211685027550 -0.6474571650930937
v 0.0032570003358028 -0.0130262212054704 -0.0159009161189020
vn -0.2196096584698720 -0.7951818857590074 -0.5652055966349723
v 0.0022042674465474 -0.0137052780425587 -0.0187760873833245
vn -0.3370373140158056 -0.2511125871873015 -0.9073854294163595
v 0.0052383588009539 -0.0135689202590408 -0.0151728184731666
vn -0.4524520874440955 0.3077539494338232 -0.8370033543393745
v -0.0101027359851533 0.0031650911943409 -0.0200134709083841
vn -0.0995890102095898 -0.4592099885815060 -0.8827277130760353
v -0.0027536165556613 -0.0036759221941989 -0.0196538344244141
vn -0.0264052319146030 -0.4224100262057461 -0.9060201617449783
v -0.0179965823951166 -0.0074940638732708 -0.0196655747918915
vn 0.2392575404572459 0.1933976532741103 -0.9515004871477557
v -0.0113639058868562 0.0042474868023110 -0.0156112350762751
vn 0.0221789906914259 0.2725765239244708 -0.9618784387734045
v -0.0113304610090579 0.0053150158998042 -0.0187035924166281
vn 0.7525315175641627 0.2839716938508700 -0.5941854863290132
v -0.0113620000000000 0.0054110000000000 -0.0192570000000000
vn 0.0032770786173392 0.6843726657760399 -0.7291250339237658
v -0.0109341835551178 0.0053440519743660 -0.0191774405664358
vn -0.2403300936025516 -0.2791115200729887 -0.9296979108675755
v -0.0112447630335940 0.0054980459225317 -0.0192174319550626
vn -0.0012746986986971 -0.8677440030281883 -0.4970097789297943
v 0.0110020000000000 0.0176990000000000 0.0054470000000000
vn 0.0066601498681629 -0.8570404954424442 -0.5152060088697563
v -0.0179969979410186 0.0177346896359011 0.0054590631779688
vn 0.0180541556685484 -0.3126458624062343 -0.9496981689902102
v -0.0179969297751007 0.0113226504221803 0.0156326571804248
vn -0.0039426393549966 -0.6541851284117701 -0.7563241853595535
v 0.0110019332376584 0.0122851962914128 0.0148991194269374
vn 0.0127514891721636 0.8243453842795072 -0.5659435368841699
v -0.0179961679569691 -0.0156517028017693 0.0141513859635845
vn -0.0121453803841033 0.3931566080548221 -0.9193913047653608
v 0.0110014594039717 -0.0132088163414374 0.0159545860940727
vn -0.0090486761442073 0.9983917576602940 -0.0559644502878953
v 0.0110020142531907 -0.0184350851169092 -0.0021067742272646
vn 0.0187305077070284 0.9981771660669065 0.0573717110053062
v -0.0179970000000000 -0.0176990000000000 -0.0054460000000000
vn -0.0002169410032739 0.9761573333409296 0.2170640769480901
v 0.0110020000000000 -0.0176930000000000 -0.0054440000000000
vn 0.7168740327546823 -0.2621450092105328 -0.6460430444699862
v 0.0120292395817431 0.0060654512208644 0.0019143191108283
vn 0.7963765011329629 -0.2060461596819723 -0.5686206543237161
v 0.0110284894996275 0.0046425141143797 0.0013812340645479
vn 0.2833067850783546 0.7282590322248901 -0.6240000380700575
v 0.0110565752032109 -0.0023875714367801 0.0035702588105871
vn 0.7290761833000419 0.2110063896118467 -0.6510946340491660
v 0.0119973510607864 -0.0018502790210538 0.0050909017582626
vn -0.1331630289826524 0.8862449322845958 -0.4436637552381733
v 0.0119979355700731 -0.0047900426909133 -0.0015113651560590
vn -0.3910159778025910 0.8019796211771935 -0.4515918426184967
v 0.0110020000000000 -0.0053520000000000 -0.0016470000000000
vn 0.9088666442561406 0.3872253333786888 -0.1549773020424127
v 0.0061132577785390 -0.0206454615135696 -0.0237465997685419
vn 0.7779494084534074 0.4057378180889746 -0.4797619627058732
v 0.0060771832178676 -0.0134438245985921 -0.0147720985839018
vn 0.9347833770517369 0.1710057764154643 0.3113471734580139
v 0.0012113570224687 -0.0134998634371911 -0.0356292763675713
vn 0.8769149644398635 0.4362568576119030 -0.2017426561935301
v -0.0002420777790049 -0.0096944286866979 -0.0333556235828768
vn 0.7866662844813528 0.0228324170137067 0.6169561066993465
v -0.0075168390832123 0.0023256085094270 -0.0240151277807317
vn 0.7963346033183754 0.0464207570689887 0.6030723943863686
v -0.0098407132597632 0.0043632492778672 -0.0211274195937562
vn 0.8372489485771210 0.4730326853724973 0.2743251295010894
v -0.0113331987730926 0.0054080344342273 -0.0192098385338128
vn 0.9399042493429327 0.2515228724133329 -0.2309031111094972
v 0.0013772987996728 -0.0166846252411866 -0.0343782836388568
vn 0.5732779448781120 0.7984762210717429 -0.1838154571827890
v -0.0087183843749378 0.0030650842579936 -0.0197766361119149
vn 0.8957495338068491 0.4110099780841104 0.1694212814262468
v -0.0038370480491511 -0.0024546904849507 -0.0285302330371587
vn 0.8471449510768815 0.5040083739263205 -0.1682884157543066
v -0.0035990631249850 0.0000030242916311 -0.0199716133092139
vn 0.7253071131337545 0.2909943423789035 -0.6239005404237510
v 0.0043386775669117 -0.0196224025034715 -0.0326608490220832
vn 0.8990523831047862 0.4372732512369287 -0.0222916169510169
v -0.0033007696691391 -0.0054830073503863 -0.0194741160835080
vn 0.8992330948746936 0.3696709694521384 -0.2339299370033609
v 0.0065976128608093 -0.0221641119541957 -0.0309054216947286
vn 0.8667566735022100 0.4660802384513025 -0.1774882538777156
v 0.0026272594424453 -0.0099166262568459 -0.0173832860029427
vn 0.9505601248498972 0.3104595971224303 -0.0070913750377542
v 0.0074528171411049 -0.0249510269988654 -0.0287479745728301
vn 0.8185727024707093 0.4274063124091370 -0.3837480617314214
v 0.0057324295900109 -0.0158425171890829 -0.0173597176018487
vn -0.8602739843412136 0.3570380429538153 0.3639402529940911
v -0.0012058836365006 -0.0237494508444660 0.0224466119073675
vn 0.9383209158694940 -0.2499088693355736 -0.2389548406482892
v 0.0061048137823751 -0.0102457521034161 0.0297792508913977
vn 0.5345256035371465 -0.7219582058198382 -0.4393844879062636
v 0.0059574335837835 -0.0048919274388126 0.0194511583981685
vn 0.9610093486034617 -0.0371185074605540 -0.2740132265067714
v 0.0008000692830389 -0.0252228345825370 0.0286336800822379
vn 0.7952579405686531 -0.2966514711256663 -0.5287369030448724
v -0.0034400628251278 -0.0238470187055826 0.0172612256286616
vn 0.7434965971262167 -0.3372323902449582 -0.5774834413482420
v -0.0073088187994476 -0.0220444906745858 0.0103094430305942
vn 0.4446012367241979 -0.6473768448420325 -0.6190581241415775
v -0.0085879892104255 -0.0211235278982954 0.0083877253862730
vn -0.4076500021788886 -0.9018960238187788 -0.1428462038117536
v -0.0113300000000000 -0.0193900000000000 0.0048900000000000
vn -0.0308076445013098 -0.9801942381647536 -0.1956275658206162
v -0.0112339542357155 -0.0194208224725879 0.0048334730953147
vn -0.3620299499681912 -0.9149475927908859 -0.1783401743079565
v -0.0106766262976810 -0.0198177864819773 0.0057263619947665
vn -0.4281818524853822 -0.8952282980287413 -0.1233960923641825
v -0.0113620000000000 -0.0193820000000000 0.0049430000000000
vn 0.8718832773998012 -0.2364450964076949 -0.4288511011707176
v 0.0020492391971717 -0.0216962442369015 0.0313939253671231
vn -0.1171274138389891 -0.8793234215505339 0.4615966737749010
v -0.0084376235526657 -0.0192165981221189 0.0059320647112713
vn 0.7019958862861279 -0.3681757872300723 -0.6096296952534961
v -0.0065628002395788 -0.0179265923511856 0.0088652000029788
vn -0.2908819396475129 0.9060333310309030 -0.3073943725053323
v -0.0055893747486349 -0.0170522470323859 0.0105211643025414
vn 0.0159221927740082 0.4628813409844374 -0.8862772410175703
v 0.0067996474531848 -0.0181686070146270 0.0333216679344477
vn 0.8644786199691449 -0.0618783901642505 -0.4988464497687877
v -0.0025472927951571 -0.0152541054662391 0.0129424496617385
vn 0.8217623500518482 -0.4342516459828993 -0.3689609030756596
v -0.0003033156127677 -0.0126730396142249 0.0155342980193459
vn 0.8022306899973637 0.0351534296326191 -0.5959783187427361
v 0.0065195338964214 -0.0149849178269538 0.0349794001094628
vn 0.9607253376266727 -0.2187990942162094 -0.1706862092035623
v 0.0022260304512662 -0.0099655981174089 0.0173517428181043
vn 0.9943817625754686 -0.0256662218543788 -0.1026944755720887
v 0.0067083763902649 -0.0122097206021893 0.0361143463036716
vn 0.8358296867461217 -0.4268720602889026 -0.3452086020054941
v 0.0019472152093098 -0.0074384099494325 0.0187567541558465
vn 0.7364607649737138 -0.5365552663948734 -0.4119878490420060
v 0.0057290437248798 -0.0076263999966647 0.0236663610863283
vn 0.3249503262681056 -0.6654383279925251 0.6720112477457235
v 0.0068538309014561 -0.0125477020231916 0.0370624734625278
vn 0.4948774741326987 -0.2218887094499526 0.8401557511644342
v 0.0054808461444018 -0.0142320069562105 0.0360585479836688
vn 0.8657599582556021 -0.2266840667646698 0.4461771268860479
v 0.0046558682591332 -0.0164712176596902 0.0374010503812981
vn -0.8661330965696905 0.3539952954579373 0.3528466945009499
v 0.0021177456571624 -0.0225622998231344 0.0298712303294679
vn -0.8489148481908434 0.0715047554929306 0.5236703643161539
v 0.0011512564545947 -0.0181022183856106 0.0230241883429164
vn -0.7904516351435539 0.4562002203987036 0.4087390015731999
v 0.0010345444199156 -0.0308889822786810 0.0370699957296720
vn 0.3668580493548199 -0.3931843285191239 0.8431021619178438
v 0.0061149440834198 -0.0143241214904637 0.0356607170325888
vn -0.6092674912536959 0.7876181098540386 -0.0919284348359043
v 0.0023356348724430 -0.0080867316264712 0.0182756332043101
vn -0.9112737218486702 -0.0749980504516342 0.4049141838668120
v -0.0086717445283123 -0.0181525420584319 0.0082537004858128
vn -0.8394279470324152 -0.1060861878084980 0.5330163623165850
v -0.0062908573868003 -0.0231248645506436 0.0126909997092097
vn -0.7721987971090498 0.2257279962452862 0.5939325630527633
v -0.0090070288331599 -0.0218008426635796 0.0086563781372657
vn -0.7949261584888779 0.1714966176881815 0.5819633258819915
v -0.0112212801577313 -0.0193250975231481 0.0048366057586745
vn -0.7793603344096564 0.5495991803848225 0.3008956797117568
v 0.0059085753255615 -0.0051954781079792 0.0193548575435797
vn -0.7842462178373626 0.5389474974347193 0.3073978933184888
v 0.0057289755606337 -0.0078843629239793 0.0243436207037094
vn -0.6336578422454026 0.6429100392284945 0.4302841159282039
v 0.0064490032760130 -0.0105618207732038 0.0296830548979460
vn -0.6079950795976107 0.6516036478144821 0.4536018841891593
v 0.0080802246086826 -0.0131797086705446 0.0356301198055281
vn -0.8291396187487595 0.4231762568628600 0.3653071970940356
v 0.0039865816819056 -0.0162126089509223 0.0344999087353631
vn -0.9321709768851623 0.0788280368191309 0.3533318701507183
v 0.0057874636140947 -0.0180603517468488 0.0332790729350659
vn 0.2625655979041384 0.3133556409234959 -0.9126157729837171
v 0.0007730932521937 -0.0102420590996713 0.0170860266593936
vn -0.9671420069337486 0.1780827332613024 0.1814466272443361
v -0.0020214279024162 -0.0126120399688484 0.0154682680848005
vn -0.6828882118726237 0.1326930586574080 0.7183705466328310
v -0.0041329604867074 -0.0149261935514317 0.0132279031575854
vn -0.8129168458717250 -0.0949985179641638 0.5745793968483194
v -0.0084163281587115 -0.0170989102954300 0.0106801822683706
vn -0.8403511580369307 0.4687697654297476 0.2721485590719324
v 0.0012202896749137 -0.0240587816874138 0.0295085318891726
vn -0.2436112524298149 -0.9670916363865297 0.0733983959007357
v -0.0036758494352912 -0.0235079333804271 0.0170177875537321
vn -0.7664016844832795 0.5055352159753598 0.3963112456516195
v -0.0027100000000000 -0.0235600000000000 0.0189520000000000
vn -0.5531267926923907 -0.8321866961485064 0.0389365375869814
v -0.0061034384269640 -0.0221334611707875 0.0119082673400517
vn -0.5418953846902841 -0.7745681134118308 0.3261803638127317
v -0.0003383454515671 -0.0232587804343216 0.0231541591893057
vn -0.7611901405406908 -0.5999177814932617 0.2463498029060430
v 0.0001123379536182 -0.0240801666542590 0.0261241895678727
vn -0.7278642725449928 0.4916030718351689 0.4780585952733979
v -0.0050661077586466 -0.0235814996402938 0.0149767114733265
vn 0.8716073723344452 0.3633743479554636 -0.3290283752811989
v 0.0061398135935089 -0.0288744393680796 -0.0346063884070213
vn -0.8892762949580210 -0.4258686251578030 -0.1668040327208469
v 0.0025357190859358 -0.0155938863212390 -0.0341034803975289
vn 0.6912017892983304 0.2979342344842594 -0.6583883947891735
v 0.0043404869100379 -0.0241140353377664 -0.0341155422669878
vn -0.9458135210093408 -0.3232511068920061 -0.0307490710267191
v 0.0013607796835724 -0.0126211871011855 -0.0292140559446050
vn -0.8460941583567828 -0.5244469171908454 0.0952895914753851
v 0.0017544656932874 -0.0141949261093429 -0.0355928213561915
vn -0.8652945206683565 -0.4949225956284584 0.0794796630447600
v 0.0011286873965042 -0.0123140242717689 -0.0307972733656469
vn -0.7869627799670140 -0.6023695389344119 0.1335684150932896
v 0.0012137607920912 -0.0136624273781329 -0.0363770907278977
vn 0.8988841620754648 0.2803665855074134 -0.3367518981398674
v 0.0068899010482202 -0.0239241772356981 -0.0271523807461663
vn -0.4195370592563912 -0.6733410365638849 0.6087696644787520
v 0.0063927112021515 -0.0136044117619835 -0.0145170438128813
vn -0.6309594910942513 -0.6357018637328492 0.4447170572899867
v 0.0057098946795491 -0.0169525634152169 -0.0186908962383978
vn -0.6962800496610356 -0.6540515245070544 0.2956529988584993
v 0.0018720684173002 -0.0121288411707891 -0.0160003880088841
vn -0.8465991970523497 -0.4862158395642149 -0.2164808465134561
v -0.0030353619070972 -0.0061668911095874 -0.0261172910189906
vn -0.8129098527782359 -0.4746248579960176 0.3375038006131593
v 0.0003551975137076 -0.0111953782740251 -0.0343263469525361
vn -0.8482983223966215 -0.3394602984484857 -0.4063947120673971
v -0.0110485576737856 0.0054410638824176 -0.0190868337440421
vn -0.7865959641872922 -0.5346348102140338 0.3089213635080429
v 0.0061135290658712 -0.0210297935060647 -0.0241401958228548
vn -0.7516177848212678 -0.5805345008302153 0.3131300031714995
v 0.0071682445708609 -0.0249062611149245 -0.0287953877305385
vn -0.8188379794562782 -0.5352343813085976 0.2074331710820676
v 0.0047027023235907 -0.0226992311314929 -0.0306217484967871
vn -0.6103531986889981 -0.7822694099850018 -0.1245935112749676
v -0.0001227176183512 -0.0098221642303853 -0.0174357266406168
vn 0.0283442630433978 -0.5497125137387362 -0.8348728975068999
v 0.0038091917427679 -0.0207261342337452 -0.0319512466248979
vn -0.0977120720291832 -0.5151065008302849 -0.8515383983016523
v 0.0024425917318470 -0.0195723578910440 -0.0327573340734579
vn -0.4598605419270418 -0.8615535170190796 -0.2150670111630844
v -0.0038189549835453 -0.0075938172034815 -0.0187255635620029
vn 0.0555328342174812 -0.4344972184158614 -0.8989595494307032
v 0.0029566225326239 -0.0190284129370030 -0.0329884868348825
vn -0.9186942952152429 -0.3774307511367787 -0.1163908073487545
v 0.0030620459885246 -0.0176141690307027 -0.0336655257300534
vn -0.6758970349872397 -0.2407447171619498 -0.6965667084020531
v -0.0098686454227679 -0.0038668539394349 -0.0202817059695650
vn -0.8838922849370036 -0.0883788340615012 -0.4592642053532723
v -0.0067840080462138 -0.0008275409721054 -0.0199301903732055
vn -0.9363198136805935 -0.3030873877317762 -0.1773224235878439
v 0.0012221955557345 -0.0135604170621030 -0.0355640069358744
vn -0.8379160012290093 -0.5268222807544859 -0.1426711582101602
v -0.0092272368028274 0.0020042985509304 -0.0199246849562597
vn -0.8040115998354840 -0.0940209621737748 -0.5871332097589977
v -0.0038459912260844 -0.0027751469368313 -0.0289517399844232
vn -0.8725933417442870 -0.3603941882675630 -0.3296921124420514
v -0.0072457402074114 0.0021089569292639 -0.0240202419577615
vn -0.6790289662965060 0.4350280420085406 -0.5913292362098409
v 0.0000359532266918 -0.0072685309501988 -0.0295730300293779
vn 0.1147308926947812 -0.2646966792096173 0.9574823707394614
v 0.0120109997431969 0.0002431650158788 -0.0056260799492378
vn 0.8528826246663986 -0.4551981717373031 0.2557065759599697
v 0.0120194651015228 0.0056897214498058 -0.0015082419767761
vn 0.8909718361242811 0.0083390350991793 -0.4539819905314988
v 0.0113586318834915 -0.0145428504473108 -0.0031768189878402
vn 0.9096895348257811 -0.2577554265918187 0.3256180128477598
v 0.0110515416163552 0.0027790297862729 -0.0034613258947408
vn 0.9883402539551643 0.0878632333476683 0.1243527025743082
v 0.0120180000000000 -0.0053520000000000 -0.0016470000000000
vn -0.0428662500640382 0.2869613016885688 0.9569825996007710
v 0.0109944194230936 -0.0088335158309288 -0.0029498775128839
vn -1.0000000000000000 0.0000000000000004 0.0000000000000004
v 0.0110020000000000 0.0006212778124217 0.0096776510741160
vn -1.0000000000000000 0.0000000000000000 0.0000000000000000
v 0.0110020000000000 -0.0023500000000000 0.0050830000000000
vn -1.0000000000000000 0.0000000000000003 0.0000000000000004
v 0.0110020000000000 0.0008244801589267 0.0101451715108450
vn -1.0000000000000000 0.0000000000000008 0.0000000000000006
v 0.0110020000000000 -0.0063153804295091 0.0173941359974492
vn -1.0000000000000000 0.0000000000000041 -0.0000000000000000
v 0.0110020000000000 0.0035624166893452 0.0043279973826639
vn -1.0000000000000000 0.0000000000000016 0.0000000000000004
v 0.0110020000000000 0.0030351556496974 0.0080231901369826
vn -1.0000000000000000 0.0000000000000002 -0.0000000000000002
v 0.0110020000000000 -0.0004225416103724 0.0056284061021423
vn -1.0000000000000000 -0.0000000000000000 -0.0000000000000000
v 0.0110020000000000 -0.0084435351871048 0.0164774864001298
vn -1.0000000000000000 0.0000000000000003 0.0000000000000000
v 0.0110020000000000 -0.0045581068779890 0.0179358946612406
vn -1.0000000000000000 0.0000000000000000 0.0000000000000000
v 0.0110020000000000 0.0008356316822920 0.0083704481678081
vn -1.0000000000000000 0.0000000000000000 0.0000000000000000
v 0.0110020000000000 0.0005950000000000 0.0090470000000000
vn -1.0000000000000000 -0.0000000000000012 -0.0000000000000004
v 0.0110020000000000 0.0013958719700194 0.0106860044512590
vn -1.0000000000000000 0.0000000000000031 0.0000000000000001
v 0.0110020000000000 0.0033885402626006 0.0083813022645660
vn -1.0000000000000000 -0.0000000000000010 -0.0000000000000003
v 0.0110020000000000 -0.0018391179517556 0.0184370024936056
vn -1.0000000000000000 0.0000000000000000 -0.0000000000000002
v 0.0110020000000000 0.0009226410661834 0.0184826732118750
vn -1.0000000000000000 0.0000000000000000 0.0000000000000000
v 0.0110020000000000 -0.0018850000000000 0.0052730000000000
vn -1.0000000000000000 0.0000000000000000 0.0000000000000000
v 0.0110020000000000 0.0005751371539103 0.0093117025347860
vn -1.0000000000000000 0.0000000000000000 0.0000000000000000
v 0.0110020000000000 0.0035290000000000 0.0086280000000000
vn -1.0000000000000000 0.0000000000000000 0.0000000000000000
v 0.0110020000000000 0.0041090000000000 0.0038050000000000
vn -1.0000000000000000 0.0000000000000001 0.0000000000000000
v 0.0110020000000000 -0.0104240816370690 0.0152897044036924
vn -1.0000000000000000 0.0000000000000006 -0.0000000000000000
v 0.0110020000000000 0.0023130000000000 0.0183550000000000
vn -1.0000000000000000 0.0000000000000004 -0.0000000000000004
v 0.0110020000000000 0.0025217049856248 0.0108021637010908
vn -1.0000000000000000 -0.0000000000000000 0.0000000000000001
v 0.0110020000000000 -0.0125930606910155 0.0135911376049469
vn -1.0000000000000000 -0.0000000000000002 0.0000000000000000
v 0.0110020000000000 0.0041265763837225 0.0180501933533466
vn -1.0000000000000000 -0.0000000000000000 0.0000000000000001
v 0.0110020000000000 -0.0034373634220226 0.0044569529046761
vn -1.0000000000000000 0.0000000000000001 -0.0000000000000002
v 0.0110020000000000 0.0032132537789459 0.0104211200512000
vn -1.0000000000000000 -0.0000000000000001 0.0000000000000002
v 0.0110020000000000 0.0051071336655095 0.0023619113769162
vn -1.0000000000000000 0.0000000000000002 -0.0000000000000004
v 0.0110020000000000 0.0158025808784390 0.0096494749915415
vn -1.0000000000000000 -0.0000000000000004 0.0000000000000006
v 0.0110020000000000 0.0168691882358785 0.0076091363036471
vn -1.0000000000000000 -0.0000000000000001 -0.0000000000000002
v 0.0110020000000000 -0.0166630000000000 0.0080370000000000
vn -1.0000000000000000 0.0000000000000000 0.0000000000000000
v 0.0110020000000000 -0.0051150000000000 0.0022810000000000
vn -1.0000000000000000 0.0000000000000001 0.0000000000000000
v 0.0110020000000000 -0.0046350022623455 0.0031702965065149
vn -1.0000000000000000 -0.0000000000000001 0.0000000000000002
v 0.0110020000000000 0.0055755606657606 0.0006694111428750
vn -1.0000000000000000 0.0000000000000000 0.0000000000000000
v 0.0110020000000000 -0.0170430000000000 0.0071960000000000
vn -1.0000000000000000 0.0000000000000000 0.0000000000000000
v 0.0110020000000000 -0.0180987541761504 0.0041409065586301
vn -1.0000000000000000 -0.0000000000000001 0.0000000000000000
v 0.0110020000000000 0.0185228137441723 -0.0004690999315049
vn -1.0000000000000000 -0.0000000000000001 -0.0000000000000003
v 0.0110020000000000 0.0181449208607084 -0.0036839081242892
vn -1.0000000000000000 0.0000000000000002 -0.0000000000000008
v 0.0110020000000000 -0.0185225524425653 -0.0004510265602540
vn -1.0000000000000000 0.0000000000000001 -0.0000000000000005
v 0.0110020000000000 -0.0055218828191641 0.0010878179836538
vn -1.0000000000000000 0.0000000000000001 -0.0000000000000005
v 0.0110020000000000 -0.0055755606657606 -0.0006694111428750
vn -1.0000000000000000 0.0000000000000002 0.0000000000000004
v 0.0110020000000000 0.0153131885929499 -0.0104621758868814
vn -1.0000000000000000 0.0000000000000001 0.0000000000000003
v 0.0110020000000000 0.0040002889864862 -0.0039412354361911
vn -1.0000000000000000 0.0000000000000000 0.0000000000000000
v 0.0110020000000000 0.0129181161374736 -0.0132636205680670
vn -1.0000000000000000 0.0000000000000000 0.0000000000000000
v 0.0110020000000000 0.0115230000000000 -0.0144730000000000
vn -1.0000000000000000 0.0000000000000000 0.0000000000000002
v 0.0110020000000000 -0.0164935959298931 -0.0084411500707559
vn -1.0000000000000000 -0.0000000000000002 0.0000000000000000
v 0.0110020000000000 0.0027970000000000 -0.0048520000000000
vn -1.0000000000000000 -0.0000000000000003 -0.0000000000000002
v 0.0110020000000000 0.0100240000000000 -0.0155480000000000
vn -1.0000000000000000 0.0000000000000000 0.0000000000000000
v 0.0110020000000000 0.0032200000000000 -0.0045820000000000
vn -1.0000000000000000 -0.0000000000000007 0.0000000000000013
v 0.0110020000000000 -0.0036798044454290 -0.0094657386540866
vn -1.0000000000000000 -0.0000000000000030 0.0000000000000016
v 0.0110020000000000 0.0018856828861311 -0.0052887317601633
vn -1.0000000000000000 -0.0000000000000031 0.0000000000000008
v 0.0110020000000000 -0.0006207506953145 -0.0096754672650902
vn -1.0000000000000000 0.0000000000000008 -0.0000000000000006
v 0.0110020000000000 -0.0030391142614124 -0.0105484573343018
vn -1.0000000000000000 0.0000000000000000 0.0000000000000000
v 0.0110020000000000 -0.0063396500736518 -0.0173858716674159
vn -1.0000000000000000 0.0000000000000006 -0.0000000000000002
v 0.0110020000000000 -0.0035624166893452 -0.0043279973826639
vn -1.0000000000000000 -0.0000000000000006 0.0000000000000007
v 0.0110020000000000 -0.0096738684999378 -0.0158028113681025
vn -1.0000000000000000 -0.0000000000000039 -0.0000000000000007
v 0.0110020000000000 -0.0035290000000000 -0.0086290000000000
vn -1.0000000000000000 -0.0000000000000031 -0.0000000000000003
v 0.0110020000000000 -0.0044330000000000 -0.0034210000000000
vn -1.0000000000000000 -0.0000000000000014 -0.0000000000000011
v 0.0110020000000000 0.0054500452836130 -0.0177086583120895
vn -1.0000000000000000 -0.0000000000000002 0.0000000000000002
v 0.0110020000000000 -0.0004749825162675 -0.0185089830416624
vn -1.0000000000000000 -0.0000000000000009 -0.0000000000000009
v 0.0110020000000000 -0.0008987266716732 -0.0102668234591534
vn -1.0000000000000000 -0.0000000000000014 -0.0000000000000000
v 0.0110020000000000 -0.0022950231752808 -0.0051385326104277
vn -1.0000000000000000 -0.0000000000000003 0.0000000000000000
v 0.0110020000000000 -0.0023140000000000 -0.0183550000000000
vn -1.0000000000000000 0.0000000000000000 0.0000000000000000
v 0.0110020000000000 -0.0023098852694048 -0.0108364060029342
vn -1.0000000000000000 -0.0000000000000030 0.0000000000000002
v 0.0110020000000000 -0.0036296552237141 -0.0088935059476143
vn -1.0000000000000000 -0.0000000000000001 0.0000000000000008
v 0.0110020000000000 -0.0144801908282138 -0.0115225267169673
vn -1.0000000000000000 -0.0000000000000059 0.0000000000000034
v 0.0110020000000000 -0.0005745878256895 -0.0090996623419614
vn -1.0000000000000000 -0.0000000000000001 0.0000000000000003
v 0.0110020000000000 -0.0152940000000000 -0.0104090000000000
vn -1.0000000000000000 -0.0000000000000002 0.0000000000000007
v 0.0110020000000000 -0.0051071336655095 -0.0023619113769162
vn -1.0000000000000000 0.0000000000000000 0.0000000000000000
v 0.0110020000000000 0.0107870000000000 -0.0150290000000000
vn -1.0000000000000000 0.0000000000000000 0.0000000000000003
v 0.0110020000000000 -0.0179727600863170 -0.0045752958367857
vn -1.0000000000000000 -0.0000000000000002 -0.0000000000000003
v 0.0110020000000000 0.0172403076890003 -0.0067885588561704
vn -1.0000000000000000 0.0000000000000000 0.0000000000000001
v 0.0110020000000000 0.0049067141100069 -0.0027309244603049
vn -1.0000000000000000 -0.0000000000000002 -0.0000000000000004
v 0.0110020000000000 0.0055218828191641 -0.0010878179836538
vn -1.0000000000000000 -0.0000000000000000 0.0000000000000000
v 0.0110020000000000 0.0183631327493538 0.0022882532277312
vn -1.0000000000000000 -0.0000000000000003 0.0000000000000003
v 0.0110020000000000 0.0178396632903978 0.0050076229689862
vn -1.0000000000000000 0.0000000000000002 0.0000000000000000
v 0.0110020000000000 -0.0153155601618422 0.0104566932192385
vn -1.0000000000000000 -0.0000000000000006 0.0000000000000005
v 0.0110020000000000 0.0092619351460938 0.0160325457386581
vn -1.0000000000000000 -0.0000000000000004 0.0000000000000002
v 0.0110020000000000 0.0036203201761031 0.0097506475630901
vn -1.0000000000000000 -0.0000000000000028 0.0000000000000008
v 0.0110020000000000 0.0025179069570946 0.0050185857090231
vn -1.0000000000000000 0.0000000000000003 -0.0000000000000001
v 0.0110020000000000 0.0020265042690400 0.0108374174986952
vn -1.0000000000000000 0.0000000000000002 -0.0000000000000003
v 0.0110020000000000 0.0044330000000000 0.0034210000000000
vn -1.0000000000000000 0.0000000000000001 -0.0000000000000002
v 0.0110020000000000 0.0122510000000000 0.0138620000000000
vn -1.0000000000000000 0.0000000000000000 -0.0000000000000004
v 0.0110020000000000 0.0111775332907144 0.0147484192320600
vn -1.0000000000000000 0.0000000000000013 -0.0000000000000007
v 0.0110020000000000 -0.0000853280709393 -0.0056427846989463
vn -1.0000000000000000 0.0000000000000001 -0.0000000000000001
v 0.0110020000000000 0.0084400136149275 -0.0164795171207491
vn -1.0000000000000000 0.0000000000000008 0.0000000000000005
v 0.0110020000000000 0.0022833889218048 -0.0183738413345005
vn -1.0000000000000000 -0.0000000000000007 -0.0000000000000002
v 0.0110020000000000 -0.0026678799088196 -0.0077797394356171
vn -1.0000000000000000 0.0000000000000000 0.0000000000000000
v 0.0110020000000000 -0.0041421611880951 -0.0180458980400401
vn -1.0000000000000000 0.0000000000000000 0.0000000000000000
v 0.0110020000000000 -0.0027243914434718 -0.0107209687077999
vn -1.0000000000000000 0.0000000000000010 -0.0000000000000008
v 0.0110020000000000 -0.0076190000000000 -0.0168580000000000
vn -1.0000000000000000 0.0000000000000004 -0.0000000000000002
v 0.0110020000000000 -0.0034396351996461 -0.0101403075353896
vn -1.0000000000000000 0.0000000000000008 0.0000000000000000
v 0.0110020000000000 -0.0033864573343018 -0.0083778857385876
vn -1.0000000000000000 0.0000000000000000 0.0000000000000000
v 0.0110020000000000 -0.0041090000000000 -0.0038050000000000
vn -1.0000000000000000 -0.0000000000000002 0.0000000000000000
v 0.0110020000000000 -0.0126168451378043 -0.0135693427782389
vn -1.0000000000000000 -0.0000000000000001 -0.0000000000000005
v 0.0110020000000000 -0.0018076113162236 -0.0077711856090082
vn -1.0000000000000000 0.0000000000000011 -0.0000000000000010
v 0.0110020000000000 -0.0010512070231218 -0.0081089001168614
vn -1.0000000000000000 0.0000000000000004 0.0000000000000003
v 0.0110020000000000 -0.0015954094519503 -0.0107663005035822
vn -1.0000000000000000 -0.0000000000000003 -0.0000000000000000
v 0.0110020000000000 0.0013369831097492 0.0054426469568572
vn -1.0000000000000000 0.0000000000000010 -0.0000000000000006
v 0.0110020000000000 0.0015324287377068 0.0078491259712649
vn -1.0000000000000000 0.0000000000000005 -0.0000000000000007
v 0.0110020000000000 0.0067759852985361 0.0172315528831971
vn -1.0000000000000000 -0.0000000000000001 -0.0000000000000002
v 0.0110020000000000 0.0138975020672349 0.0122551040130860
vn -1.0000000000000000 -0.0000000000000000 -0.0000000000000001
v 0.0110020000000000 0.0036712780106832 0.0090353577312795
vn -1.0000000000000000 -0.0000000000000031 0.0000000000000007
v 0.0110020000000000 0.0023081984724828 0.0077239557265280
vn 0.0172193343373155 -0.8678661790667147 0.4964995365124935
v -0.0179970645421674 0.0179893770841125 -0.0086272384174204
vn -0.0063867598569920 -0.8486974087272310 0.5288401627318149
v 0.0110020625874300 0.0176671641326121 -0.0101961893052120
vn -0.0061451985312372 -0.9999265399841940 -0.0104475437424157
v -0.0179970000000000 0.0176820000000000 0.0054410000000000
vn 0.0000000000000000 -0.9999995499319240 0.0009487549470193
v 0.0110020000000000 0.0176820000000000 0.0054410000000000
vn -0.0141637303012685 0.2326703997554380 0.9724525046610747
v 0.0110019780626088 -0.0037976126159771 -0.0187326272960085
vn 0.0080466925914165 -0.1495189148442972 0.9887261222614293
v -0.0179970634478154 -0.0009050144827818 -0.0191755953191708
vn -0.0034553793949224 0.8046736354124884 0.5937073360042695
v 0.0110019848803367 -0.0149514088181781 -0.0112893016953670
vn 0.0077209419646638 0.6515727388635301 0.7585468693660639
v -0.0179969917184077 -0.0138984799070527 -0.0126464799491711
vn -0.0012827614441658 0.9049210040405821 0.4255776438786022
v 0.0110020000000000 -0.0176990000000000 -0.0054470000000000
vn 0.0043581967583916 0.8938478498612679 0.4483492248453248
v -0.0179969987760203 -0.0177344582004850 -0.0054590117380188
vn -1.0000000000000000 -0.0000000000000001 -0.0000000000000016
v -0.0179970000000000 0.0049102139518650 0.0193961554658752
vn -1.0000000000000000 0.0000000000000000 0.0000000000000000
v -0.0179970000000000 0.0013960000000000 0.0184470000000000
vn -1.0000000000000000 -0.0000000000000007 -0.0000000000000009
v -0.0179970000000000 0.0032265281045848 0.0182312141981382
vn -1.0000000000000000 0.0000000000000000 0.0000000000000000
v -0.0179970000000000 0.0080749773162437 0.0183162958573226
vn -1.0000000000000000 0.0000000000000006 -0.0000000000000007
v -0.0179970000000000 0.0062800000000000 0.0189910000000000
vn -1.0000000000000000 0.0000000000000000 0.0000000000000000
v -0.0179970000000000 0.0067807023110318 0.0172275793552522
vn -1.0000000000000000 -0.0000000000000005 -0.0000000000000002
v -0.0179970000000000 0.0025983782134735 0.0198475453768799
vn -1.0000000000000000 0.0000000000000000 0.0000000000000000
v -0.0179970000000000 -0.0007162187979513 0.0200178456654092
vn -1.0000000000000000 -0.0000000000000006 -0.0000000000000003
v -0.0179970000000000 0.0100733907346211 0.0155710725426059
vn -1.0000000000000000 0.0000000000000005 -0.0000000000000014
v -0.0179970000000000 0.0050240000000000 0.0178040000000000
vn -1.0000000000000000 0.0000000000000000 0.0000000000000000
v -0.0179970000000000 -0.0009106713600017 0.0185056387592454
vn -1.0000000000000000 0.0000000000000000 0.0000000000000000
v -0.0179970000000000 -0.0049741190934585 0.0194210026847375
vn -1.0000000000000000 -0.0000000000000004 0.0000000000000003
v -0.0179970000000000 0.0110248865332734 0.0167235975469949
vn -1.0000000000000000 -0.0000000000000020 -0.0000000000000013
v -0.0179970000000000 0.0126003065810457 0.0135520719846070
vn -1.0000000000000000 0.0000000000000000 0.0000000000000007
v -0.0179970000000000 -0.0050035130338425 0.0178581942822442
vn -1.0000000000000000 -0.0000000000000007 0.0000000000000014
v -0.0179970000000000 -0.0085598858611696 0.0180950897794404
vn -1.0000000000000000 0.0000000000000007 0.0000000000000000
v -0.0179970000000000 0.0147902383655154 0.0111883159299309
vn -1.0000000000000000 -0.0000000000000006 -0.0000000000000003
v -0.0179970000000000 0.0136407248467771 0.0146497210526386
vn -1.0000000000000000 -0.0000000000000006 0.0000000000000007
v -0.0179970000000000 -0.0118413714026569 0.0161763732206619
vn -1.0000000000000000 -0.0000000000000014 0.0000000000000014
v -0.0179970000000000 -0.0084366429228821 0.0164812081878690
vn -1.0000000000000000 0.0000000000000009 -0.0000000000000002
v -0.0179970000000000 0.0164729967846524 0.0084310003048906
vn -1.0000000000000000 0.0000000000000018 -0.0000000000000011
v -0.0179970000000000 -0.0146494445453930 0.0136410340588913
vn -1.0000000000000000 -0.0000000000000022 -0.0000000000000007
v -0.0179970000000000 0.0191607934996877 0.0058982538280572
vn -1.0000000000000000 0.0000000000000007 -0.0000000000000014
v -0.0179970000000000 -0.0141650000000000 0.0119010000000000
vn -1.0000000000000000 -0.0000000000000000 -0.0000000000000007
v -0.0179970000000000 -0.0172653080327267 0.0102319798768596
vn -1.0000000000000000 0.0000000000000000 0.0000000000000000
v -0.0179970000000000 0.0185230069469395 -0.0009341644532798
vn -1.0000000000000000 0.0000000000000007 -0.0000000000000003
v -0.0179970000000000 -0.0160769761678175 0.0092883805514591
vn -1.0000000000000000 0.0000000000000000 0.0000000000000000
v -0.0179970000000000 0.0178338461852487 -0.0050267323342409
vn -1.0000000000000000 0.0000000000000000 0.0000000000000000
v -0.0179970000000000 0.0200343145436591 -0.0011748235791894
vn -1.0000000000000000 0.0000000000000000 0.0000000000000000
v -0.0179970000000000 0.0191530654601958 -0.0058653937121372
vn -1.0000000000000000 0.0000000000000000 0.0000000000000000
v -0.0179970000000000 0.0170430000000000 -0.0071970000000000
vn -1.0000000000000000 -0.0000000000000018 -0.0000000000000001
v -0.0179970000000000 -0.0184935731782401 -0.0009129130777924
vn -1.0000000000000000 -0.0000000000000018 -0.0000000000000009
v -0.0179970000000000 -0.0198390781628543 -0.0025946014433239
vn -1.0000000000000000 0.0000000000000008 -0.0000000000000012
v -0.0179970000000000 0.0119024273699663 -0.0141998058319123
vn -1.0000000000000000 -0.0000000000000022 -0.0000000000000008
v -0.0179970000000000 -0.0191662566764754 -0.0058815360740136
vn -1.0000000000000000 -0.0000000000000005 -0.0000000000000008
v -0.0179970000000000 0.0110310000000000 -0.0166860000000000
vn -1.0000000000000000 -0.0000000000000003 -0.0000000000000003
v -0.0179970000000000 0.0084567488262646 -0.0165057772516857
vn -1.0000000000000000 -0.0000000000000020 -0.0000000000000011
v -0.0179970000000000 -0.0164729967846524 -0.0084310003048906
vn -1.0000000000000000 0.0000000000000009 -0.0000000000000016
v -0.0179970000000000 0.0045561162034874 -0.0179599448265466
vn -1.0000000000000000 0.0000000000000007 -0.0000000000000010
v -0.0179970000000000 0.0081375774188636 -0.0183445647577678
vn -1.0000000000000000 -0.0000000000000003 -0.0000000000000005
v -0.0179970000000000 -0.0147902383655154 -0.0111883159299309
vn -1.0000000000000000 0.0000000000000003 -0.0000000000000015
v -0.0179970000000000 0.0035718703128506 -0.0197091186190612
vn -1.0000000000000000 -0.0000000000000003 -0.0000000000000005
v -0.0179970000000000 0.0013653794675588 -0.0184642038690853
vn -1.0000000000000000 0.0000000000000006 0.0000000000000002
v -0.0179970000000000 -0.0092853646922591 -0.0160531488950668
vn -1.0000000000000000 -0.0000000000000002 -0.0000000000000007
v -0.0179970000000000 -0.0085123297138429 -0.0181315266449348
vn -1.0000000000000000 -0.0000000000000010 0.0000000000000004
v -0.0179970000000000 -0.0036686580157645 -0.0181376047576313
vn -1.0000000000000000 0.0000000000000009 0.0000000000000004
v -0.0179970000000000 -0.0016450000000000 -0.0199340000000000
vn -1.0000000000000000 0.0000000000000000 0.0000000000000000
v -0.0179970000000000 -0.0013960000000000 -0.0184470000000000
vn -1.0000000000000000 0.0000000000000010 0.0000000000000011
v -0.0179970000000000 -0.0023140000000000 -0.0183540000000000
vn -1.0000000000000000 0.0000000000000001 0.0000000000000015
v -0.0179970000000000 -0.0030632616786719 -0.0197712243175483
vn -1.0000000000000000 -0.0000000000000014 -0.0000000000000011
v -0.0179970000000000 -0.0053839589441100 -0.0192788293934647
vn -1.0000000000000000 -0.0000000000000009 -0.0000000000000016
v -0.0179970000000000 -0.0059026106250142 -0.0175480919018691
vn -1.0000000000000000 0.0000000000000000 0.0000000000000000
v -0.0179970000000000 -0.0006940000000000 -0.0199900000000000
vn -1.0000000000000000 0.0000000000000000 0.0000000000000000
v -0.0179970000000000 -0.0004750000000000 -0.0184940000000000
vn -1.0000000000000000 0.0000000000000000 0.0000000000000000
v -0.0179970000000000 0.0007340878365635 -0.0199937354699766
vn -1.0000000000000000 0.0000000000000010 0.0000000000000004
v -0.0179970000000000 -0.0113924832184188 -0.0164593302197786
vn -1.0000000000000000 0.0000000000000000 0.0000000000000000
v -0.0179970000000000 -0.0136289174706068 -0.0146614860488158
vn -1.0000000000000000 0.0000000000000005 0.0000000000000002
v -0.0179970000000000 -0.0122550663845451 -0.0138780752473449
vn -1.0000000000000000 0.0000000000000000 0.0000000000000000
v -0.0179970000000000 -0.0158789089979610 -0.0122092182221736
vn -1.0000000000000000 -0.0000000000000017 -0.0000000000000006
v -0.0179970000000000 -0.0176739476350355 -0.0093977942263104
vn -1.0000000000000000 -0.0000000000000021 -0.0000000000000007
v -0.0179970000000000 -0.0178756636696277 -0.0050192216833905
vn -1.0000000000000000 0.0000000000000019 -0.0000000000000012
v -0.0179970000000000 0.0129600923214004 -0.0152734552604286
vn -1.0000000000000000 0.0000000000000013 -0.0000000000000010
v -0.0179970000000000 0.0159194459695521 -0.0121860815141952
vn -1.0000000000000000 0.0000000000000021 -0.0000000000000010
v -0.0179970000000000 0.0144735555115599 -0.0115693611243249
vn -1.0000000000000000 -0.0000000000000000 -0.0000000000000003
v -0.0179970000000000 0.0179029419909444 -0.0089538562423357
vn -1.0000000000000000 0.0000000000000006 -0.0000000000000008
v -0.0179970000000000 0.0162511172709237 -0.0088731214803192
vn -1.0000000000000000 -0.0000000000000014 0.0000000000000003
v -0.0179970000000000 -0.0200157251658662 -0.0002528031047281
vn -1.0000000000000000 -0.0000000000000004 0.0000000000000007
v -0.0179970000000000 -0.0183368641505314 0.0027773795744834
vn -1.0000000000000000 0.0000000000000016 -0.0000000000000002
v -0.0179970000000000 -0.0175437970142305 0.0058884152287750
vn -1.0000000000000000 0.0000000000000009 0.0000000000000001
v -0.0179970000000000 -0.0197350306933821 0.0035258725125215
vn -1.0000000000000000 0.0000000000000016 -0.0000000000000003
v -0.0179970000000000 -0.0188348985296701 0.0067510084710465
vn -1.0000000000000000 -0.0000000000000010 0.0000000000000002
v -0.0179970000000000 0.0198367855926582 0.0026126455469560
vn -1.0000000000000000 -0.0000000000000002 0.0000000000000003
v -0.0179970000000000 0.0184100000000000 0.0018300000000000
vn -1.0000000000000000 0.0000000000000011 -0.0000000000000004
v -0.0179970000000000 -0.0119248722561745 0.0142310274732240
vn -1.0000000000000000 -0.0000000000000012 -0.0000000000000003
v -0.0179970000000000 0.0178756636696277 0.0050192216833905
vn -1.0000000000000000 -0.0000000000000006 -0.0000000000000006
v -0.0179970000000000 0.0178747428240506 0.0089891697239252
vn -1.0000000000000000 0.0000000000000015 0.0000000000000003
v -0.0179970000000000 0.0161760912684204 0.0118413391056697
vn -0.0034356054835972 -0.9863134055685947 0.1648455720079917
v -0.0179969500212689 -0.0197717963184843 -0.0060590463800112
vn 0.0043320740583487 -0.9842617615074050 0.1766635728402812
v 0.0120180437111645 -0.0198813172844244 -0.0060887852427574
vn -0.1345353867426403 -0.7660419900872810 0.6285538156253020
v -0.0179971975839024 -0.0165754384525379 0.0130655787054430
vn 0.1322590415653502 -0.7506297877135618 0.6473503438798098
v 0.0120175992167826 -0.0161553487582446 0.0133276535177702
vn 0.0153263692931095 -0.5674657635775656 0.8232543407548008
v 0.0120180000000000 -0.0046240000000000 0.0194670000000000
vn 0.0029040083180876 0.2724642078125222 0.9621615364359475
v -0.0179969388701222 0.0037670393682128 0.0200542227287058
vn 0.0422773637711085 0.4176086940633890 0.9076428830521595
v 0.0120179551098198 0.0132500519335405 0.0152142836749256
vn 0.0845734612287564 0.9471253786635334 0.3095171186659093
v 0.0120180260824076 0.0194385279557197 0.0059849084539311
vn -0.0554147019236502 0.9973454710656481 0.0472358143314315
v -0.0021921642178674 0.0186606835374654 0.0057377686047792
vn 0.0667618040548610 0.6467982160098470 0.7597334593696788
v -0.0109756026949500 0.0175964143399672 0.0179046476388691
vn -0.1266338777214064 0.5188298123064811 0.8454463240651423
v -0.0112086199181437 0.0137954023093780 0.0142520688746377
vn 0.0309522370731994 0.5797507130460302 0.8142057907819031
v -0.0179969573134940 0.0120645894936518 0.0160013007974865
vn 0.1418532504088988 0.4043879669508743 0.9035197991930054
v -0.0113399865601422 0.0137852064657939 0.0141860558632078
vn 0.5541036041412464 0.5651514061854926 0.6112062532110100
v -0.0113620000000000 0.0139720000000000 0.0143140000000000
vn -0.0001008647731271 0.0892419143155043 0.9960099751285636
v 0.0120179489046542 0.0029162517169941 0.0201774563055776
vn 0.1649425773378646 0.8278674883552466 0.5361243959246007
v -0.0179970119643539 0.0166879028459620 0.0112279768563036
vn 0.0032777604284776 0.9068555012245409 0.4214289455950557
v -0.0045660000000000 0.0191180000000000 0.0058830000000000
vn 0.0035537302163391 0.9070251505305724 0.4210614531235814
v -0.0179969843082192 0.0191602228255107 0.0058966050153869
vn -0.0055468253709693 0.7259902495539837 0.6876826232215325
v -0.0090059538413233 0.0165500145170550 0.0114434744092031
vn 0.4967677966126748 0.7558789248874861 0.4264607920542361
v -0.0113615205921901 0.0119117388066087 0.0119640429064753
vn -0.0107893683606829 -0.1601891585299457 0.9870273669052168
v -0.0179970019116316 -0.0052790452723954 0.0193296688972144
vn 0.0419224824659408 -0.7234098321137700 0.6891449196395631
v 0.0060400000000000 -0.0051770000000000 0.0193200000000000
vn 0.0354435500069985 -0.7674734785354377 0.6401001597465948
v 0.0060399497249064 -0.0050856861897730 0.0189131228655121
vn -0.2191468838323469 0.2987223739188846 0.9288377611977442
v 0.0036973714525040 -0.0071473765268806 0.0200333384097930
vn -0.3448461120750630 -0.1593029903652847 0.9250425483443403
v 0.0026639835246823 -0.0092440310476237 0.0220304021227072
vn 0.0427846709919291 -0.9200403019170923 0.3894808272257033
v -0.0108526909687645 -0.0191530356549423 0.0061918933116874
vn -0.0029242521480924 -0.5109224699150993 0.8596218229461307
v 0.0005987966418737 -0.0116323214505479 0.0159771032697296
vn 0.3596031718373843 -0.9275972865723255 -0.1012365188464696
v -0.0110034666753902 -0.0243086066244904 0.0062599624454029
vn 0.3144444820082532 -0.2458654892189486 -0.9168832144530121
v -0.0113031342393507 -0.0195823680303685 0.0048842186415805
vn 0.0092482483043655 0.0134985850489439 0.9998661200905735
v 0.0053439948158597 -0.0055645828546693 0.0191176315296026
vn 1.0000000000000000 0.0000000000000001 0.0000000000000003
v 0.0120180000000000 -0.0049305568783938 0.0027473924456386
vn 1.0000000000000000 0.0000000000000003 0.0000000000000005
v 0.0120180000000000 -0.0094065486442079 0.0176690224735844
vn 1.0000000000000000 -0.0000000000000009 -0.0000000000000006
v 0.0120180000000000 -0.0058830000000000 0.0191180000000000
vn 1.0000000000000000 -0.0000000000000000 0.0000000000000002
v 0.0120180000000000 -0.0045109738591883 0.0194927702087221
vn 1.0000000000000000 0.0000000000000000 -0.0000000000000001
v 0.0120180000000000 -0.0122182691031822 0.0158725460301286
vn 1.0000000000000000 -0.0000000000000004 0.0000000000000000
v 0.0120180000000000 0.0007235564634354 0.0099585958369564
vn 1.0000000000000000 0.0000000000000014 0.0000000000000006
v 0.0120180000000000 0.0015368818029369 0.0107275216203061
vn 1.0000000000000000 -0.0000000000000007 0.0000000000000004
v 0.0120180000000000 -0.0034415195473185 0.0044518899706469
vn 1.0000000000000000 -0.0000000000000006 0.0000000000000002
v 0.0120180000000000 0.0030562246463169 0.0197962007699454
vn 1.0000000000000000 0.0000000000000001 0.0000000000000002
v 0.0120180000000000 -0.0143265264227892 0.0139654449462135
vn 1.0000000000000000 0.0000000000000001 -0.0000000000000003
v 0.0120180000000000 0.0058271809974674 0.0191412434585388
vn 1.0000000000000000 -0.0000000000000000 0.0000000000000007
v 0.0120180000000000 0.0005599808194127 0.0093546896444669
vn 1.0000000000000000 0.0000000000000000 0.0000000000000000
v 0.0120180000000000 -0.0164805537224143 0.0114145502752471
vn 1.0000000000000000 -0.0000000000000004 -0.0000000000000002
v 0.0120180000000000 0.0023134071669009 0.0108630469740079
vn 1.0000000000000000 -0.0000000000000006 0.0000000000000000
v 0.0120180000000000 0.0085165214387548 0.0181305623842471
vn 1.0000000000000000 -0.0000000000000000 0.0000000000000000
v 0.0120180000000000 -0.0192640000000000 0.0053860000000000
vn 1.0000000000000000 -0.0000000000000001 0.0000000000000002
v 0.0120180000000000 -0.0185182781049822 0.0076352340637322
vn 1.0000000000000000 0.0000000000000005 -0.0000000000000004
v 0.0120180000000000 -0.0018999617846030 0.0052837266043215
vn 1.0000000000000000 -0.0000000000000001 -0.0000000000000002
v 0.0120180000000000 -0.0054400000000000 0.0013300000000000
vn 1.0000000000000000 -0.0000000000000002 -0.0000000000000001
v 0.0120180000000000 0.0031610750666378 0.0104626059601893
vn 1.0000000000000000 -0.0000000000000001 -0.0000000000000000
v 0.0120180000000000 -0.0056413596013904 -0.0001645828612614
vn 1.0000000000000000 -0.0000000000000001 0.0000000000000001
v 0.0120180000000000 -0.0196342227962006 -0.0040499676825065
vn 1.0000000000000000 0.0000000000000010 0.0000000000000005
v 0.0120180000000000 -0.0048819324319305 -0.0028022086337130
vn 1.0000000000000000 0.0000000000000006 -0.0000000000000005
v 0.0120180000000000 0.0029804016780095 0.0079902546028923
vn 1.0000000000000000 0.0000000000000012 -0.0000000000000003
v 0.0120180000000000 0.0036512835068016 0.0089682883759781
vn 1.0000000000000000 0.0000000000000000 0.0000000000000000
v 0.0120180000000000 0.0171920000000000 0.0102240000000000
vn 1.0000000000000000 0.0000000000000000 0.0000000000000000
v 0.0120180000000000 0.0183088093982100 0.0081249492700673
vn 1.0000000000000000 0.0000000000000009 0.0000000000000003
v 0.0120180000000000 0.0045863573341975 0.0032231342377760
vn 1.0000000000000000 0.0000000000000017 -0.0000000000000014
v 0.0120180000000000 0.0004202118081371 -0.0055997593408274
vn 1.0000000000000000 0.0000000000000003 -0.0000000000000006
v 0.0120180000000000 -0.0146497617465671 -0.0136608647239446
vn 1.0000000000000000 0.0000000000000000 0.0000000000000000
v 0.0120180000000000 -0.0093493423695352 -0.0176895645088743
vn 1.0000000000000000 0.0000000000000000 0.0000000000000000
v 0.0120180000000000 -0.0080740000000000 -0.0183010000000000
vn 1.0000000000000000 0.0000000000000000 0.0000000000000000
v 0.0120180000000000 0.0055744113760610 0.0006650861458680
vn 1.0000000000000000 -0.0000000000000000 -0.0000000000000003
v 0.0120180000000000 -0.0020237041103827 -0.0108440713558580
vn 1.0000000000000000 0.0000000000000010 -0.0000000000000002
v 0.0120180000000000 -0.0044855729660614 -0.0195089355816178
vn 1.0000000000000000 0.0000000000000002 0.0000000000000001
v 0.0120180000000000 0.0031020000000000 -0.0197600000000000
vn 1.0000000000000000 -0.0000000000000011 -0.0000000000000002
v 0.0120180000000000 0.0007482412512950 -0.0200170250931291
vn 1.0000000000000000 0.0000000000000001 0.0000000000000003
v 0.0120180000000000 0.0051266954635571 -0.0022899610604452
vn 1.0000000000000000 0.0000000000000001 0.0000000000000003
v 0.0120180000000000 0.0172229900325893 -0.0101823614688918
vn 1.0000000000000000 0.0000000000000001 -0.0000000000000001
v 0.0120180000000000 0.0122182691031822 -0.0158725460301286
vn 1.0000000000000000 -0.0000000000000002 -0.0000000000000002
v 0.0120180000000000 0.0102250000000000 -0.0171910000000000
vn 1.0000000000000000 -0.0000000000000001 -0.0000000000000001
v 0.0120180000000000 0.0040171046578563 -0.0039640080245258
vn 1.0000000000000000 0.0000000000000001 -0.0000000000000001
v 0.0120180000000000 0.0054434899722487 -0.0192772703566157
vn 1.0000000000000000 -0.0000000000000001 -0.0000000000000003
v 0.0120180000000000 0.0153250940022020 -0.0129235084578764
vn 1.0000000000000000 0.0000000000000001 0.0000000000000003
v 0.0120180000000000 0.0185182781049822 -0.0076352340637322
vn 1.0000000000000000 0.0000000000000000 0.0000000000000000
v 0.0120180000000000 0.0192640000000000 -0.0053860000000000
vn 1.0000000000000000 0.0000000000000000 0.0000000000000000
v 0.0120180000000000 0.0054400000000000 -0.0013300000000000
vn 1.0000000000000000 0.0000000000000001 0.0000000000000003
v 0.0120180000000000 0.0196880000000000 -0.0035300000000000
vn 1.0000000000000000 0.0000000000000000 0.0000000000000000
v 0.0120180000000000 0.0194980000000000 -0.0044630000000000
vn 1.0000000000000000 0.0000000000000006 -0.0000000000000001
v 0.0120180000000000 -0.0027300850148683 -0.0107376515795116
vn 1.0000000000000000 -0.0000000000000024 0.0000000000000019
v 0.0120180000000000 0.0016599803045800 -0.0053538895503897
vn 1.0000000000000000 0.0000000000000001 0.0000000000000000
v 0.0120180000000000 0.0055734710102173 -0.0005944417458493
vn 1.0000000000000000 0.0000000000000001 0.0000000000000001
v 0.0120180000000000 0.0199490911200235 -0.0016462594594071
vn 1.0000000000000000 0.0000000000000001 -0.0000000000000002
v 0.0120180000000000 -0.0117917869613019 -0.0161925190929065
vn 1.0000000000000000 0.0000000000000000 0.0000000000000000
v 0.0120180000000000 0.0196342227962006 0.0040499676825065
vn 1.0000000000000000 0.0000000000000000 0.0000000000000000
v 0.0120180000000000 0.0051949653098428 0.0021335663439954
vn 1.0000000000000000 0.0000000000000011 -0.0000000000000015
v 0.0120180000000000 -0.0014482400232868 -0.0078661722254542
vn 1.0000000000000000 -0.0000000000000001 0.0000000000000001
v 0.0120180000000000 -0.0166933059347367 -0.0110477073986713
vn 1.0000000000000000 -0.0000000000000001 -0.0000000000000012
v 0.0120180000000000 -0.0010859504613136 -0.0055095662625326
vn 1.0000000000000000 -0.0000000000000012 -0.0000000000000000
v 0.0120180000000000 -0.0027413754094247 -0.0049149000370664
vn 1.0000000000000000 0.0000000000000003 0.0000000000000002
v 0.0120180000000000 0.0034052046195138 0.0083925021008189
vn 1.0000000000000000 0.0000000000000015 0.0000000000000001
v 0.0120180000000000 -0.0036811789906113 -0.0089573961981173
vn 1.0000000000000000 0.0000000000000018 0.0000000000000006
v 0.0120180000000000 -0.0039315724559385 -0.0039964623626131
vn 1.0000000000000000 0.0000000000000016 -0.0000000000000009
v 0.0120180000000000 0.0018337807518165 0.0053609916761844
vn 1.0000000000000000 -0.0000000000000001 0.0000000000000001
v 0.0120180000000000 0.0161605366306120 0.0118135576346100
vn 1.0000000000000000 -0.0000000000000003 0.0000000000000005
v 0.0120180000000000 -0.0183077918268620 -0.0081277843266293
vn 1.0000000000000000 0.0000000000000001 -0.0000000000000006
v 0.0120180000000000 0.0149470000000000 0.0132930000000000
vn 1.0000000000000000 -0.0000000000000002 -0.0000000000000003
v 0.0120180000000000 0.0036422261863783 0.0097241951448596
vn 1.0000000000000000 -0.0000000000000001 -0.0000000000000000
v 0.0120180000000000 -0.0199937302258134 -0.0007360875695021
vn 1.0000000000000000 0.0000000000000002 0.0000000000000000
v 0.0120180000000000 0.0125678711625046 0.0156455966296411
vn 1.0000000000000000 -0.0000000000000001 -0.0000000000000002
v 0.0120180000000000 -0.0198786876377624 0.0025930894485755
vn 1.0000000000000000 -0.0000000000000012 0.0000000000000001
v 0.0120180000000000 0.0037641326709465 0.0041669066649017
vn 1.0000000000000000 -0.0000000000000009 -0.0000000000000006
v 0.0120180000000000 -0.0004202118081371 0.0055997593408274
vn 1.0000000000000000 -0.0000000000000005 -0.0000000000000000
v 0.0120180000000000 0.0002028314330933 0.0200069196481867
vn 1.0000000000000000 0.0000000000000022 0.0000000000000008
v 0.0120180000000000 -0.0021549035693249 0.0199014340398607
vn 1.0000000000000000 0.0000000000000003 -0.0000000000000005
v 0.0120180000000000 -0.0035775557849248 -0.0098671110831821
vn 1.0000000000000000 0.0000000000000000 0.0000000000000000
v 0.0120180000000000 -0.0032617734441348 -0.0103527372734813
vn 1.0000000000000000 0.0000000000000000 0.0000000000000000
v 0.0120180000000000 -0.0067548046895498 -0.0188331868061015
vn 1.0000000000000000 -0.0000000000000007 0.0000000000000005
v 0.0120180000000000 -0.0007558141581060 -0.0085299879268144
vn 1.0000000000000000 0.0000000000000001 -0.0000000000000000
v 0.0120180000000000 -0.0021132049301076 -0.0198964574370715
vn 1.0000000000000000 -0.0000000000000009 -0.0000000000000002
v 0.0120180000000000 -0.0013995587823623 -0.0106728665893475
vn 1.0000000000000000 0.0000000000000016 -0.0000000000000009
v 0.0120180000000000 0.0023520000000000 -0.0050820000000000
vn 1.0000000000000000 -0.0000000000000002 -0.0000000000000001
v 0.0120180000000000 0.0027980000000000 -0.0048500000000000
vn 1.0000000000000000 0.0000000000000029 -0.0000000000000019
v 0.0120180000000000 -0.0005970000000000 -0.0095410000000000
vn 1.0000000000000000 0.0000000000000003 0.0000000000000001
v 0.0120180000000000 -0.0009061507455807 -0.0102573527865670
vn 1.0000000000000000 0.0000000000000000 -0.0000000000000002
v 0.0120180000000000 0.0199937302258134 0.0007360875695021
vn 1.0000000000000000 -0.0000000000000008 -0.0000000000000006
v 0.0120180000000000 -0.0023806658958128 -0.0077410836862833
vn 1.0000000000000000 0.0000000000000002 0.0000000000000003
v 0.0120180000000000 -0.0031530584295888 -0.0081027525420027
vn 1.0000000000000000 -0.0000000000000000 -0.0000000000000001
v 0.0120180000000000 -0.0006653306752925 -0.0098179575173221
vn 1.0000000000000000 -0.0000000000000002 -0.0000000000000002
v 0.0120180000000000 0.0085562464167023 -0.0180957094984442
vn 1.0000000000000000 -0.0000000000000000 0.0000000000000004
v 0.0120180000000000 -0.0005720879059359 -0.0091996707106447
vn 1.0000000000000000 0.0000000000000008 0.0000000000000001
v 0.0120180000000000 0.0010500715799780 0.0104245190069983
vn 1.0000000000000000 -0.0000000000000003 -0.0000000000000003
v 0.0120180000000000 -0.0072213655767476 0.0186591893817521
vn 1.0000000000000000 0.0000000000000001 -0.0000000000000006
v 0.0120180000000000 0.0007998984006858 0.0084376220773046
vn 1.0000000000000000 -0.0000000000000012 -0.0000000000000004
v 0.0120180000000000 0.0014001241430924 0.0079114155845517
vn 1.0000000000000000 0.0000000000000035 -0.0000000000000013
v 0.0120180000000000 0.0022350507240812 0.0077086848049648
vn 0.9597096735160694 0.1698020731970317 0.2238852351042148
v 0.0070052640659616 0.0344407837519769 -0.0072796317695049
vn 0.7691800901003176 0.4349138486520625 0.4682007403282467
v 0.0055996692849985 0.0382656647118489 -0.0041553069729622
vn 0.9128483200189124 0.2499248868097017 0.3228707103343489
v 0.0056287776532443 0.0409821140326238 -0.0063403296197673
vn 0.7805221233564124 0.2995502233175493 0.5486846805421157
v 0.0045121579813519 0.0411123959584876 -0.0041624373866553
vn -0.8870397431056767 0.1292966420828523 -0.4432187637015315
v 0.0020527937183125 0.0368992398053616 0.0047466572771361
vn -0.8369865349248665 0.1287797954755696 -0.5318545897439786
v 0.0012725411151172 0.0383573723126352 0.0063276136982931
vn -0.8842436234305983 0.4326457768100831 -0.1758716754646016
v 0.0011157773129123 0.0288185133109576 0.0042646379510584
vn -0.7254714479357346 0.0839438742791313 -0.6831139028017497
v 0.0049603368087612 0.0233422245620451 -0.0062016329375270
vn -0.4777231671478027 -0.3879050206951613 -0.7882323708715337
v 0.0061273516768500 0.0193644109911766 -0.0049513622647460
vn -0.7585261284022963 -0.1181364172008551 -0.6408446765496058
v 0.0005214974130858 0.0200514608013955 -0.0018919390899067
vn -0.8139649725317035 0.3629235819668584 -0.4535939782931517
v -0.0031123421082506 0.0192725007087690 0.0049978581889666
vn -0.6580058738108525 0.5417128822523308 -0.5230443797922780
v -0.0086440713342026 0.0166397211803227 0.0110894284612054
vn -0.0090904079037994 0.5350831047109109 0.8447505167427096
v 0.0003169169000505 0.0352253475703352 0.0075242040373557
vn -0.8969985292861383 0.4376645692758203 0.0619948647802019
v -0.0040183208482439 0.0259589319880597 0.0121855952171954
vn -0.8266596128666898 0.5033418023188322 -0.2515569806098099
v -0.0108762852950018 0.0150101722660768 0.0133042474372902
vn -0.8994525027580805 0.4189319818999716 0.1244234295604618
v -0.0112815850638705 0.0138410121263016 0.0143108961326423
vn -0.8547034285820808 0.4856654979265017 -0.1833332301952894
v -0.0084404700082519 0.0198246496338720 0.0147023893389810
vn -0.7652628200977289 0.0400223155976645 -0.6424725911899060
v 0.0066174020802356 0.0318379495576892 -0.0058086932690402
vn -0.7894919305107533 0.3784782030032641 -0.4831736142525003
v 0.0059960469394854 0.0255957108102192 -0.0051114133517825
vn -0.8674395095016912 0.2457727951344777 -0.4326019307946410
v 0.0078279051957491 0.0374322892547995 -0.0066221102100787
vn -0.8696805600689529 0.2782618610774395 -0.4077083027212862
v 0.0067848224108401 0.0377867093925684 -0.0018255742168369
vn 0.8260965493527425 -0.1044872148674900 0.5537570885114943
v 0.0000533663080623 0.0199712265179569 0.0004070855596747
vn 0.2660781657422024 0.9086576329209064 0.3217820937371134
v -0.0025904749263081 0.0198340619336820 0.0029805788917779
vn -0.9511018423529339 0.1503341822002235 -0.2698238668743830
v -0.0048012300280353 0.0187247919528111 0.0068696200478110
vn -0.9019600951798452 0.1155014524403212 -0.4160858098846207
v -0.0044825488766610 0.0177383307798182 0.0085827607387291
vn -0.8461744383851335 0.3767924332153396 -0.3768504771063286
v -0.0061364236407086 0.0218213674687577 0.0133013203744927
vn -0.8558835713613593 0.5003687613691373 0.1307456114737328
v 0.0012264359524091 0.0375781162375907 0.0060436972614831
vn -0.6159631138352126 0.6022571611191757 0.5078146849738595
v -0.0008319359474662 0.0330996811999462 0.0088582838605767
# 517 vertices, 0 vertices normals


usemtl material_0
f 43//43 48//48 44//44
f 113//113 114//114 112//112
f 113//113 112//112 115//115
f 111//111 113//113 115//115
f 111//111 115//115 110//110
f 115//115 109//109 110//110
f 142//142 143//143 144//144
f 142//142 139//139 143//143
f 143//143 139//139 141//141
f 141//141 139//139 140//140
f 145//145 140//140 139//139
f 145//145 138//138 140//140
f 174//174 190//190 175//175
f 178//178 179//179 186//186
f 198//198 181//181 174//174
f 184//184 183//183 180//180
f 184//184 180//180 189//189
f 189//189 190//190 184//184
f 191//191 192//192 186//186
f 253//253 194//194 197//197
f 199//199 195//195 273//273
f 248//248 200//200 202//202
f 203//203 205//205 204//204
f 248//248 206//206 200//200
f 207//207 212//212 208//208
f 209//209 206//206 247//247
f 246//246 210//210 244//244
f 208//208 212//212 211//211
f 211//211 213//213 243//243
f 216//216 215//215 214//214
f 213//213 241//241 243//243
f 216//216 217//217 215//215
f 241//241 218//218 243//243
f 219//219 221//221 220//220
f 215//215 217//217 221//221
f 219//219 258//258 224//224
f 227//227 234//234 260//260
f 229//229 237//237 230//230
f 234//234 257//257 268//268
f 228//228 267//267 222//222
f 269//269 223//223 239//239
f 240//240 241//241 230//230
f 221//221 242//242 220//220
f 215//215 245//245 214//214
f 212//212 213//213 211//211
f 206//206 209//209 246//246
f 247//247 206//206 248//248
f 204//204 212//212 207//207
f 204//204 207//207 203//203
f 249//249 205//205 203//203
f 202//202 200//200 201//201
f 249//249 196//196 205//205
f 198//198 205//205 196//196
f 193//193 198//198 196//196
f 181//181 198//198 193//193
f 175//175 190//190 189//189
f 175//175 198//198 174//174
f 176//176 174//174 177//177
f 185//185 176//176 187//187
f 188//188 194//194 253//253
f 254//254 191//191 275//275
f 275//275 201//201 254//254
f 251//251 256//256 255//255
f 200//200 254//254 201//201
f 210//210 246//246 209//209
f 245//245 246//246 244//244
f 214//214 245//245 244//244
f 242//242 221//221 217//217
f 258//258 219//219 220//220
f 224//224 231//231 233//233
f 270//270 259//259 232//232
f 227//227 260//260 265//265
f 263//263 228//228 264//264
f 229//229 266//266 265//265
f 230//230 237//237 240//240
f 222//222 238//238 237//237
f 241//241 240//240 218//218
f 222//222 267//267 238//238
f 240//240 237//237 238//238
f 266//266 229//229 230//230
f 227//227 265//265 266//266
f 260//260 234//234 268//268
f 269//269 268//268 257//257
f 239//239 223//223 224//224
f 269//269 257//257 223//223
f 223//223 219//219 224//224
f 231//231 224//224 258//258
f 259//259 233//233 231//231
f 259//259 270//270 233//233
f 236//236 270//270 235//235
f 232//232 235//235 270//270
f 235//235 261//261 236//236
f 226//226 262//262 261//261
f 262//262 236//236 261//261
f 225//225 262//262 226//226
f 263//263 264//264 225//225
f 225//225 226//226 263//263
f 228//228 222//222 264//264
f 178//178 252//252 179//179
f 177//177 174//174 181//181
f 182//182 176//176 177//177
f 187//187 176//176 182//182
f 188//188 185//185 187//187
f 188//188 253//253 185//185
f 197//197 195//195 253//253
f 195//195 197//197 273//273
f 250//250 199//199 273//273
f 250//250 251//251 199//199
f 256//256 251//251 250//250
f 251//251 255//255 275//275
f 255//255 274//274 275//275
f 201//201 275//275 274//274
f 192//192 191//191 254//254
f 178//178 186//186 192//192
f 252//252 276//276 179//179
f 271//271 276//276 252//252
f 271//271 272//272 276//276
f 272//272 271//271 180//180
f 272//272 180//180 183//183
f 288//288 293//293 289//289
f 290//290 292//292 291//291
f 288//288 297//297 294//294
f 290//290 299//299 295//295
f 287//287 291//291 296//296
f 297//297 301//301 298//298
f 299//299 304//304 295//295
f 301//301 302//302 298//298
f 300//300 304//304 303//303
f 302//302 306//306 305//305
f 305//305 360//360 308//308
f 309//309 358//358 361//361
f 313//313 311//311 310//310
f 357//357 313//313 355//355
f 314//314 315//315 316//316
f 316//316 317//317 314//314
f 319//319 318//318 347//347
f 326//326 323//323 322//322
f 348//348 322//322 320//320
f 327//327 346//346 324//324
f 343//343 345//345 327//327
f 333//333 335//335 334//334
f 336//336 332//332 335//335
f 337//337 331//331 338//338
f 334//334 340//340 339//339
f 340//340 329//329 341//341
f 329//329 325//325 328//328
f 342//342 330//330 331//331
f 343//343 344//344 342//342
f 347//347 321//321 319//319
f 349//349 348//348 350//350
f 349//349 350//350 352//352
f 352//352 317//317 351//351
f 354//354 353//353 356//356
f 355//355 354//354 356//356
f 359//359 358//358 315//315
f 360//360 310//310 308//308
f 361//361 307//307 362//362
f 303//303 363//363 307//307
f 319//319 353//353 318//318
f 353//353 354//354 318//318
f 356//356 357//357 355//355
f 357//357 311//311 313//313
f 311//311 308//308 310//310
f 305//305 306//306 360//360
f 302//302 301//301 306//306
f 298//298 294//294 297//297
f 294//294 293//293 288//288
f 293//293 287//287 289//289
f 287//287 296//296 289//289
f 291//291 292//292 296//296
f 290//290 295//295 292//292
f 304//304 300//300 295//295
f 304//304 363//363 303//303
f 363//363 362//362 307//307
f 362//362 309//309 361//361
f 358//358 359//359 361//361
f 315//315 312//312 359//359
f 315//315 314//314 312//312
f 316//316 351//351 317//317
f 351//351 349//349 352//352
f 348//348 320//320 350//350
f 322//322 323//323 320//320
f 326//326 325//325 323//323
f 326//326 328//328 325//325
f 328//328 341//341 329//329
f 341//341 339//339 340//340
f 339//339 333//333 334//334
f 333//333 336//336 335//335
f 336//336 337//337 332//332
f 337//337 338//338 332//332
f 331//331 330//330 338//338
f 342//342 344//344 330//330
f 343//343 327//327 344//344
f 327//327 345//345 346//346
f 324//324 346//346 347//347
f 346//346 321//321 347//347
f 382//382 379//379 383//383
f 366//366 388//388 387//387
f 384//384 387//387 393//393
f 395//395 398//398 401//401
f 485//485 397//397 396//396
f 403//403 401//401 398//398
f 485//485 396//396 399//399
f 467//467 400//400 407//407
f 394//394 401//401 403//403
f 406//406 394//394 403//403
f 405//405 395//395 401//401
f 411//411 405//405 401//401
f 404//404 407//407 413//413
f 394//394 410//410 409//409
f 394//394 409//409 412//412
f 487//487 411//411 466//466
f 457//457 417//417 489//489
f 454//454 421//421 418//418
f 419//419 449//449 420//420
f 419//419 458//458 421//421
f 422//422 452//452 450//450
f 423//423 447//447 469//469
f 424//424 425//425 470//470
f 427//427 443//443 428//428
f 429//429 474//474 430//430
f 431//431 435//435 432//432
f 431//431 432//432 438//438
f 433//433 435//435 434//434
f 437//437 435//435 433//433
f 438//438 439//439 431//431
f 440//440 441//441 445//445
f 442//442 440//440 439//439
f 443//443 425//425 471//471
f 472//472 444//444 422//422
f 426//426 445//445 479//479
f 469//469 447//447 424//424
f 470//470 425//425 443//443
f 449//449 448//448 420//420
f 472//472 422//422 450//450
f 421//421 449//449 419//419
f 465//465 417//417 457//457
f 416//416 459//459 451//451
f 461//461 460//460 463//463
f 172//172 459//459 416//416
f 414//414 415//415 172//172
f 414//414 462//462 415//415
f 462//462 414//414 464//464
f 414//414 412//412 464//464
f 400//400 467//467 468//468
f 405//405 399//399 395//395
f 410//410 394//394 406//406
f 464//464 412//412 409//409
f 459//459 172//172 415//415
f 455//455 451//451 423//423
f 473//473 430//430 427//427
f 475//475 477//477 476//476
f 476//476 434//434 435//435
f 435//435 437//437 432//432
f 439//439 440//440 431//431
f 441//441 440//440 442//442
f 446//446 445//445 441//441
f 445//445 446//446 479//479
f 479//479 448//448 426//426
f 448//448 449//449 426//426
f 455//455 416//416 451//451
f 480//480 450//450 452//452
f 452//452 453//453 480//480
f 481//481 453//453 456//456
f 480//480 453//453 481//481
f 456//456 455//455 481//481
f 456//456 416//416 455//455
f 423//423 469//469 455//455
f 424//424 470//470 469//469
f 471//471 428//428 443//443
f 473//473 427//427 428//428
f 474//474 427//427 430//430
f 474//474 429//429 478//478
f 429//429 436//436 478//478
f 436//436 482//482 478//478
f 434//434 482//482 483//483
f 483//483 482//482 436//436
f 476//476 477//477 482//482
f 482//482 434//434 476//476
f 477//477 475//475 484//484
f 444//444 484//484 475//475
f 472//472 484//484 444//444
f 408//408 413//413 461//461
f 463//463 408//408 461//461
f 408//408 404//404 413//413
f 407//407 404//404 402//402
f 402//402 467//467 407//407
f 400//400 468//468 485//485
f 397//397 485//485 468//468
f 399//399 486//486 395//395
f 396//396 486//486 399//399
f 411//411 487//487 405//405
f 457//457 488//488 466//466
f 487//487 466//466 488//488
f 457//457 489//489 488//488
f 454//454 417//417 465//465
f 465//465 421//421 454//454
f 458//458 418//418 421//421
f 418//418 458//458 460//460
f 418//418 460//460 461//461
f 493//493 491//491 492//492
f 494//494 491//491 496//496
f 494//494 496//496 495//495
f 491//491 493//493 496//496
f 490//490 492//492 491//491
f 2//2 1//1 20//20
f 10//10 12//12 4//4
f 5//5 4//4 12//12
f 6//6 12//12 9//9
f 8//8 7//7 17//17
f 10//10 11//11 12//12
f 12//12 15//15 9//9
f 11//11 14//14 12//12
f 9//9 15//15 16//16
f 9//9 16//16 17//17
f 14//14 15//15 12//12
f 16//16 21//21 17//17
f 18//18 13//13 3//3
f 18//18 3//3 19//19
f 17//17 3//3 13//13
f 3//3 17//17 21//21
f 20//20 19//19 3//3
f 21//21 23//23 3//3
f 1//1 22//22 20//20
f 20//20 3//3 2//2
f 26//26 28//28 48//48
f 48//48 28//28 27//27
f 30//30 29//29 25//25
f 29//29 30//30 31//31
f 32//32 29//29 31//31
f 32//32 31//31 33//33
f 38//38 34//34 36//36
f 37//37 35//35 39//39
f 34//34 38//38 33//33
f 40//40 33//33 38//38
f 41//41 33//33 40//40
f 39//39 32//32 37//37
f 32//32 41//41 37//37
f 32//32 33//33 41//41
f 26//26 48//48 42//42
f 26//26 42//42 45//45
f 26//26 45//45 47//47
f 26//26 47//47 24//24
f 26//26 24//24 25//25
f 46//46 48//48 49//49
f 24//24 52//52 25//25
f 49//49 48//48 51//51
f 51//51 48//48 30//30
f 53//53 25//25 52//52
f 51//51 30//30 50//50
f 30//30 25//25 53//53
f 30//30 53//53 50//50
f 48//48 46//46 44//44
f 48//48 43//43 42//42
f 56//56 55//55 57//57
f 59//59 60//60 58//58
f 58//58 60//60 61//61
f 61//61 60//60 62//62
f 58//58 56//56 59//59
f 56//56 57//57 59//59
f 57//57 55//55 54//54
f 67//67 65//65 66//66
f 67//67 68//68 65//65
f 64//64 66//66 65//65
f 66//66 64//64 63//63
f 78//78 74//74 75//75
f 73//73 74//74 78//78
f 75//75 77//77 78//78
f 72//72 76//76 71//71
f 78//78 77//77 79//79
f 72//72 80//80 76//76
f 72//72 78//78 81//81
f 79//79 81//81 78//78
f 81//81 83//83 72//72
f 82//82 80//80 72//72
f 83//83 82//82 72//72
f 82//82 83//83 84//84
f 69//69 83//83 85//85
f 83//83 69//69 84//84
f 70//70 85//85 83//83
f 104//104 87//87 106//106
f 86//86 90//90 89//89
f 99//99 91//91 92//92
f 99//99 92//92 94//94
f 95//95 94//94 92//92
f 94//94 95//95 93//93
f 96//96 93//93 95//95
f 99//99 90//90 91//91
f 98//98 99//99 94//94
f 102//102 90//90 99//99
f 89//89 90//90 102//102
f 89//89 102//102 97//97
f 102//102 99//99 100//100
f 103//103 97//97 102//102
f 104//104 101//101 97//97
f 103//103 105//105 97//97
f 105//105 107//107 97//97
f 97//97 87//87 104//104
f 107//107 108//108 97//97
f 108//108 107//107 88//88
f 87//87 97//97 108//108
f 125//125 123//123 122//122
f 122//122 121//121 125//125
f 116//116 125//125 121//121
f 123//123 125//125 124//124
f 116//116 127//127 128//128
f 128//128 125//125 116//116
f 125//125 128//128 126//126
f 118//118 128//128 129//129
f 128//128 118//118 126//126
f 129//129 130//130 118//118
f 118//118 130//130 117//117
f 126//126 136//136 131//131
f 126//126 118//118 136//136
f 118//118 117//117 120//120
f 119//119 118//118 120//120
f 132//132 136//136 118//118
f 132//132 135//135 136//136
f 118//118 134//134 132//132
f 135//135 132//132 133//133
f 132//132 134//134 137//137
f 147//147 146//146 148//148
f 154//154 153//153 152//152
f 147//147 154//154 152//152
f 154//154 147//147 148//148
f 148//148 149//149 154//154
f 149//149 148//148 155//155
f 149//149 155//155 158//158
f 157//157 156//156 154//154
f 154//154 160//160 157//157
f 158//158 161//161 149//149
f 160//160 159//159 157//157
f 154//154 149//149 160//160
f 161//161 162//162 149//149
f 164//164 149//149 162//162
f 149//149 163//163 160//160
f 151//151 149//149 164//164
f 163//163 149//149 165//165
f 166//166 149//149 151//151
f 163//163 165//165 167//167
f 163//163 167//167 150//150
f 165//165 149//149 166//166
f 169//169 171//171 168//168
f 169//169 170//170 171//171
f 171//171 173//173 168//168
f 168//168 173//173 172//172
f 282//282 278//278 277//277
f 279//279 278//278 280//280
f 278//278 279//279 277//277
f 278//278 282//282 281//281
f 284//284 281//281 282//282
f 281//281 284//284 283//283
f 283//283 284//284 286//286
f 285//285 283//283 286//286
f 367//367 366//366 365//365
f 378//378 369//369 384//384
f 373//373 371//371 372//372
f 371//371 373//373 370//370
f 374//374 370//370 373//373
f 370//370 374//374 375//375
f 374//374 376//376 375//375
f 375//375 369//369 370//370
f 370//370 369//369 378//378
f 377//377 375//375 376//376
f 377//377 379//379 375//375
f 379//379 382//382 381//381
f 381//381 382//382 380//380
f 377//377 383//383 379//379
f 368//368 378//378 384//384
f 366//366 364//364 365//365
f 385//385 386//386 368//368
f 368//368 384//384 385//385
f 385//385 384//384 393//393
f 368//368 386//386 367//367
f 367//367 386//386 390//390
f 366//366 389//389 388//388
f 367//367 390//390 391//391
f 392//392 389//389 366//366
f 391//391 392//392 367//367
f 366//366 367//367 392//392
f 366//366 387//387 384//384
f 517//517 516//516 503//503
f 504//504 505//505 506//506
f 515//515 500//500 513//513
f 499//499 508//508 497//497
f 497//497 498//498 499//499
f 508//508 500//500 507//507
f 500//500 509//509 507//507
f 500//500 508//508 499//499
f 510//510 509//509 500//500
f 500//500 499//499 511//511
f 500//500 511//511 512//512
f 514//514 515//515 513//513
f 514//514 501//501 515//515
f 500//500 515//515 510//510
f 504//504 515//515 501//501
f 516//516 510//510 515//515
f 503//503 516//516 515//515
f 506//506 515//515 504//504
f 516//516 517//517 502//502
# 500 faces, 0 coords texture

# End of File
